<?xml version="1.0" encoding="UTF-8" standalone="no"?><svg xmlns="http://www.w3.org/2000/svg" xmlns:xlink="http://www.w3.org/1999/xlink" contentScriptType="application/ecmascript" contentStyleType="text/css" height="1958px" preserveAspectRatio="none" style="width:1827px;height:1958px;" version="1.1" viewBox="0 0 1827 1958" width="1827px" zoomAndPan="magnify"><defs><filter height="300%" id="f1qtbzoqbqucky" width="300%" x="-1" y="-1"><feGaussianBlur result="blurOut" stdDeviation="2.0"/><feColorMatrix in="blurOut" result="blurOut2" type="matrix" values="0 0 0 0 0 0 0 0 0 0 0 0 0 0 0 0 0 0 .4 0"/><feOffset dx="4.0" dy="4.0" in="blurOut2" result="blurOut3"/><feBlend in="SourceGraphic" in2="blurOut3" mode="normal"/></filter></defs><g><text fill="#000000" font-family="sans-serif" font-size="14" lengthAdjust="spacingAndGlyphs" textLength="313" x="758.25" y="22.9951">Smart AnyTool Agent - Full Pipeline Sequence</text><rect fill="#FFFFE0" height="1913.1563" style="stroke: #A80036; stroke-width: 1.0;" width="169" x="338" y="34.2969"/><text fill="#000000" font-family="sans-serif" font-size="14" font-weight="bold" lengthAdjust="spacingAndGlyphs" textLength="163" x="341" y="47.292">CLI Layer (Phase 10)</text><rect fill="#ADD8E6" height="1913.1563" style="stroke: #A80036; stroke-width: 1.0;" width="191" x="635.5" y="34.2969"/><text fill="#000000" font-family="sans-serif" font-size="14" font-weight="bold" lengthAdjust="spacingAndGlyphs" textLength="183" x="639.5" y="47.292">SMART Layer (Phase 4)</text><rect fill="#90EE90" height="1913.1563" style="stroke: #A80036; stroke-width: 1.0;" width="355" x="828.5" y="34.2969"/><text fill="#000000" font-family="sans-serif" font-size="14" font-weight="bold" lengthAdjust="spacingAndGlyphs" textLength="218" x="897" y="47.292">AnyTool Layer (Phases 5-9)</text><rect fill="#FFB6C1" height="1913.1563" style="stroke: #A80036; stroke-width: 1.0;" width="358" x="1319.5" y="34.2969"/><text fill="#000000" font-family="sans-serif" font-size="14" font-weight="bold" lengthAdjust="spacingAndGlyphs" textLength="208" x="1394.5" y="47.292">Tool Layer (Phases 1-3, 6)</text><rect fill="#FFFFFF" filter="url(#f1qtbzoqbqucky)" height="1626.8906" style="stroke: #000000; stroke-width: 2.0;" width="1803.5" x="13" y="216.375"/><rect fill="#FFFFFF" filter="url(#f1qtbzoqbqucky)" height="1455.8125" style="stroke: #000000; stroke-width: 2.0;" width="1783.5" x="23" y="380.4531"/><rect fill="#FFFFFF" height="142.7813" style="stroke: none; stroke-width: 1.0;" width="1783.5" x="23" y="460.6406"/><rect fill="#FFFFFF" filter="url(#f1qtbzoqbqucky)" height="49.8906" style="stroke: #000000; stroke-width: 2.0;" width="435.5" x="33" y="516.2344"/><rect fill="#FFFFFF" height="1232.8438" style="stroke: none; stroke-width: 1.0;" width="1783.5" x="23" y="603.4219"/><rect fill="#FFFFFF" filter="url(#f1qtbzoqbqucky)" height="49.8906" style="stroke: #000000; stroke-width: 2.0;" width="435.5" x="33" y="659.0156"/><rect fill="#FFFFFF" filter="url(#f1qtbzoqbqucky)" height="672.3125" style="stroke: #000000; stroke-width: 2.0;" width="1430" x="366.5" y="889.6875"/><rect fill="#FFFFFF" filter="url(#f1qtbzoqbqucky)" height="436.3438" style="stroke: #000000; stroke-width: 2.0;" width="974" x="812.5" y="946.5781"/><rect fill="#FFFFFF" filter="url(#f1qtbzoqbqucky)" height="342.1563" style="stroke: #000000; stroke-width: 2.0;" width="871" x="822.5" y="1033.7656"/><rect fill="#FFFFFF" height="292.2656" style="stroke: none; stroke-width: 1.0;" width="871" x="822.5" y="1083.6563"/><rect fill="#FFFFFF" filter="url(#f1qtbzoqbqucky)" height="200.375" style="stroke: #000000; stroke-width: 2.0;" width="592" x="1091.5" y="1108.9531"/><rect fill="#FFFFFF" filter="url(#f1qtbzoqbqucky)" height="158.0781" style="stroke: #000000; stroke-width: 2.0;" width="813" x="376.5" y="1396.9219"/><rect fill="#FFFFFF" height="77.8906" style="stroke: none; stroke-width: 1.0;" width="813" x="376.5" y="1477.1094"/><rect fill="#FFFFFF" filter="url(#f1qtbzoqbqucky)" height="159.0781" style="stroke: #000000; stroke-width: 2.0;" width="953.5" x="33" y="1576"/><rect fill="#FFFFFF" height="78.8906" style="stroke: none; stroke-width: 1.0;" width="953.5" x="33" y="1656.1875"/><rect fill="#FFFFFF" filter="url(#f1qtbzoqbqucky)" height="80.1875" style="stroke: #000000; stroke-width: 2.0;" width="953.5" x="33" y="1749.0781"/><line style="stroke: #A80036; stroke-width: 1.0; stroke-dasharray: 5.0,5.0;" x1="62" x2="62" y1="138.7813" y2="1860.2656"/><line style="stroke: #A80036; stroke-width: 1.0; stroke-dasharray: 5.0,5.0;" x1="422.5" x2="422.5" y1="138.7813" y2="1860.2656"/><line style="stroke: #A80036; stroke-width: 1.0; stroke-dasharray: 5.0,5.0;" x1="730.5" x2="730.5" y1="138.7813" y2="1860.2656"/><line style="stroke: #A80036; stroke-width: 1.0; stroke-dasharray: 5.0,5.0;" x1="904.5" x2="904.5" y1="138.7813" y2="1860.2656"/><line style="stroke: #A80036; stroke-width: 1.0; stroke-dasharray: 5.0,5.0;" x1="1140.5" x2="1140.5" y1="138.7813" y2="1860.2656"/><line style="stroke: #A80036; stroke-width: 1.0; stroke-dasharray: 5.0,5.0;" x1="1374.5" x2="1374.5" y1="138.7813" y2="1860.2656"/><line style="stroke: #A80036; stroke-width: 1.0; stroke-dasharray: 5.0,5.0;" x1="1554.5" x2="1554.5" y1="138.7813" y2="1860.2656"/><line style="stroke: #A80036; stroke-width: 1.0; stroke-dasharray: 5.0,5.0;" x1="1729.5" x2="1729.5" y1="138.7813" y2="1860.2656"/><text fill="#000000" font-family="sans-serif" font-size="14" lengthAdjust="spacingAndGlyphs" textLength="32" x="43" y="135.4795">User</text><ellipse cx="62" cy="65.4844" fill="#FEFECE" filter="url(#f1qtbzoqbqucky)" rx="8" ry="8" style="stroke: #A80036; stroke-width: 2.0;"/><path d="M62,73.4844 L62,100.4844 M49,81.4844 L75,81.4844 M62,100.4844 L49,115.4844 M62,100.4844 L75,115.4844 " fill="none" filter="url(#f1qtbzoqbqucky)" style="stroke: #A80036; stroke-width: 2.0;"/><text fill="#000000" font-family="sans-serif" font-size="14" lengthAdjust="spacingAndGlyphs" textLength="32" x="43" y="1872.2607">User</text><ellipse cx="62" cy="1885.5625" fill="#FEFECE" filter="url(#f1qtbzoqbqucky)" rx="8" ry="8" style="stroke: #A80036; stroke-width: 2.0;"/><path d="M62,1893.5625 L62,1920.5625 M49,1901.5625 L75,1901.5625 M62,1920.5625 L49,1935.5625 M62,1920.5625 L75,1935.5625 " fill="none" filter="url(#f1qtbzoqbqucky)" style="stroke: #A80036; stroke-width: 2.0;"/><rect fill="#FEFECE" filter="url(#f1qtbzoqbqucky)" height="46.5938" style="stroke: #A80036; stroke-width: 1.5;" width="68" x="386.5" y="87.1875"/><text fill="#000000" font-family="sans-serif" font-size="14" lengthAdjust="spacingAndGlyphs" textLength="53" x="394" y="107.1826">main.py</text><text fill="#000000" font-family="sans-serif" font-size="14" lengthAdjust="spacingAndGlyphs" textLength="54" x="393.5" y="123.4795">run_cli()</text><rect fill="#FEFECE" filter="url(#f1qtbzoqbqucky)" height="46.5938" style="stroke: #A80036; stroke-width: 1.5;" width="68" x="386.5" y="1859.2656"/><text fill="#000000" font-family="sans-serif" font-size="14" lengthAdjust="spacingAndGlyphs" textLength="53" x="394" y="1879.2607">main.py</text><text fill="#000000" font-family="sans-serif" font-size="14" lengthAdjust="spacingAndGlyphs" textLength="54" x="393.5" y="1895.5576">run_cli()</text><rect fill="#FEFECE" filter="url(#f1qtbzoqbqucky)" height="46.5938" style="stroke: #A80036; stroke-width: 1.5;" width="179" x="639.5" y="87.1875"/><text fill="#000000" font-family="sans-serif" font-size="14" lengthAdjust="spacingAndGlyphs" textLength="59" x="699.5" y="107.1826">smart.py</text><text fill="#000000" font-family="sans-serif" font-size="14" lengthAdjust="spacingAndGlyphs" textLength="165" x="646.5" y="123.4795">self_awareness_check()</text><rect fill="#FEFECE" filter="url(#f1qtbzoqbqucky)" height="46.5938" style="stroke: #A80036; stroke-width: 1.5;" width="179" x="639.5" y="1859.2656"/><text fill="#000000" font-family="sans-serif" font-size="14" lengthAdjust="spacingAndGlyphs" textLength="59" x="699.5" y="1879.2607">smart.py</text><text fill="#000000" font-family="sans-serif" font-size="14" lengthAdjust="spacingAndGlyphs" textLength="165" x="646.5" y="1895.5576">self_awareness_check()</text><rect fill="#FEFECE" filter="url(#f1qtbzoqbqucky)" height="46.5938" style="stroke: #A80036; stroke-width: 1.5;" width="140" x="832.5" y="87.1875"/><text fill="#000000" font-family="sans-serif" font-size="14" lengthAdjust="spacingAndGlyphs" textLength="77" x="864" y="107.1826">retriever.py</text><text fill="#000000" font-family="sans-serif" font-size="14" lengthAdjust="spacingAndGlyphs" textLength="126" x="839.5" y="123.4795">filter_tools() / run()</text><rect fill="#FEFECE" filter="url(#f1qtbzoqbqucky)" height="46.5938" style="stroke: #A80036; stroke-width: 1.5;" width="140" x="832.5" y="1859.2656"/><text fill="#000000" font-family="sans-serif" font-size="14" lengthAdjust="spacingAndGlyphs" textLength="77" x="864" y="1879.2607">retriever.py</text><text fill="#000000" font-family="sans-serif" font-size="14" lengthAdjust="spacingAndGlyphs" textLength="126" x="839.5" y="1895.5576">filter_tools() / run()</text><rect fill="#FEFECE" filter="url(#f1qtbzoqbqucky)" height="46.5938" style="stroke: #A80036; stroke-width: 1.5;" width="74" x="1101.5" y="87.1875"/><text fill="#000000" font-family="sans-serif" font-size="14" lengthAdjust="spacingAndGlyphs" textLength="60" x="1108.5" y="107.1826">agent.py</text><text fill="#000000" font-family="sans-serif" font-size="14" lengthAdjust="spacingAndGlyphs" textLength="46" x="1115.5" y="123.4795">solve()</text><rect fill="#FEFECE" filter="url(#f1qtbzoqbqucky)" height="46.5938" style="stroke: #A80036; stroke-width: 1.5;" width="74" x="1101.5" y="1859.2656"/><text fill="#000000" font-family="sans-serif" font-size="14" lengthAdjust="spacingAndGlyphs" textLength="60" x="1108.5" y="1879.2607">agent.py</text><text fill="#000000" font-family="sans-serif" font-size="14" lengthAdjust="spacingAndGlyphs" textLength="46" x="1115.5" y="1895.5576">solve()</text><rect fill="#FEFECE" filter="url(#f1qtbzoqbqucky)" height="46.5938" style="stroke: #A80036; stroke-width: 1.5;" width="98" x="1323.5" y="87.1875"/><text fill="#000000" font-family="sans-serif" font-size="14" lengthAdjust="spacingAndGlyphs" textLength="84" x="1330.5" y="107.1826">validation.py</text><text fill="#000000" font-family="sans-serif" font-size="14" lengthAdjust="spacingAndGlyphs" textLength="69" x="1338" y="123.4795">dispatch()</text><rect fill="#FEFECE" filter="url(#f1qtbzoqbqucky)" height="46.5938" style="stroke: #A80036; stroke-width: 1.5;" width="98" x="1323.5" y="1859.2656"/><text fill="#000000" font-family="sans-serif" font-size="14" lengthAdjust="spacingAndGlyphs" textLength="84" x="1330.5" y="1879.2607">validation.py</text><text fill="#000000" font-family="sans-serif" font-size="14" lengthAdjust="spacingAndGlyphs" textLength="69" x="1338" y="1895.5576">dispatch()</text><rect fill="#FEFECE" filter="url(#f1qtbzoqbqucky)" height="79.1875" style="stroke: #A80036; stroke-width: 1.5;" width="234" x="1435.5" y="54.5938"/><text fill="#000000" font-family="sans-serif" font-size="14" lengthAdjust="spacingAndGlyphs" textLength="54" x="1525.5" y="74.5889">tools.py</text><text fill="#000000" font-family="sans-serif" font-size="14" lengthAdjust="spacingAndGlyphs" textLength="204" x="1450.5" y="90.8857">calculator / weather / search /</text><text fill="#000000" font-family="sans-serif" font-size="14" lengthAdjust="spacingAndGlyphs" textLength="220" x="1442.5" y="107.1826">text_intelligence (backend API) /</text><text fill="#000000" font-family="sans-serif" font-size="14" lengthAdjust="spacingAndGlyphs" textLength="212" x="1446.5" y="123.4795">database (Postgres, read-only)</text><rect fill="#FEFECE" filter="url(#f1qtbzoqbqucky)" height="79.1875" style="stroke: #A80036; stroke-width: 1.5;" width="234" x="1435.5" y="1859.2656"/><text fill="#000000" font-family="sans-serif" font-size="14" lengthAdjust="spacingAndGlyphs" textLength="54" x="1525.5" y="1879.2607">tools.py</text><text fill="#000000" font-family="sans-serif" font-size="14" lengthAdjust="spacingAndGlyphs" textLength="204" x="1450.5" y="1895.5576">calculator / weather / search /</text><text fill="#000000" font-family="sans-serif" font-size="14" lengthAdjust="spacingAndGlyphs" textLength="220" x="1442.5" y="1911.8545">text_intelligence (backend API) /</text><text fill="#000000" font-family="sans-serif" font-size="14" lengthAdjust="spacingAndGlyphs" textLength="212" x="1446.5" y="1928.1514">database (Postgres, read-only)</text><rect fill="#FEFECE" filter="url(#f1qtbzoqbqucky)" height="30.2969" style="stroke: #A80036; stroke-width: 1.5;" width="89" x="1683.5" y="103.4844"/><text fill="#000000" font-family="sans-serif" font-size="14" lengthAdjust="spacingAndGlyphs" textLength="75" x="1690.5" y="123.4795">OpenAI API</text><rect fill="#FEFECE" filter="url(#f1qtbzoqbqucky)" height="30.2969" style="stroke: #A80036; stroke-width: 1.5;" width="89" x="1683.5" y="1859.2656"/><text fill="#000000" font-family="sans-serif" font-size="14" lengthAdjust="spacingAndGlyphs" textLength="75" x="1690.5" y="1879.2607">OpenAI API</text><polygon fill="#A80036" points="410.5,167.0781,420.5,171.0781,410.5,175.0781,414.5,171.0781" style="stroke: #A80036; stroke-width: 1.0;"/><line style="stroke: #A80036; stroke-width: 1.0;" x1="62" x2="416.5" y1="171.0781" y2="171.0781"/><text fill="#000000" font-family="sans-serif" font-size="14" lengthAdjust="spacingAndGlyphs" textLength="150" x="69" y="165.7764">start (python main.py)</text><polygon fill="#A80036" points="73,197.375,63,201.375,73,205.375,69,201.375" style="stroke: #A80036; stroke-width: 1.0;"/><line style="stroke: #A80036; stroke-width: 1.0; stroke-dasharray: 2.0,2.0;" x1="67" x2="421.5" y1="201.375" y2="201.375"/><text fill="#000000" font-family="sans-serif" font-size="14" lengthAdjust="spacingAndGlyphs" textLength="115" x="79" y="196.0732">welcome banner</text><path d="M13,216.375 L92,216.375 L92,224.375 L82,234.375 L13,234.375 L13,216.375 " fill="#EEEEEE" style="stroke: #000000; stroke-width: 1.0;"/><rect fill="none" height="1626.8906" style="stroke: #000000; stroke-width: 2.0;" width="1803.5" x="13" y="216.375"/><text fill="#000000" font-family="sans-serif" font-size="14" font-weight="bold" lengthAdjust="spacingAndGlyphs" textLength="34" x="28" y="230.3701">loop</text><text fill="#000000" font-family="sans-serif" font-size="14" font-weight="bold" lengthAdjust="spacingAndGlyphs" textLength="281" x="107" y="231.3701">[REPL — one question per iteration]</text><polygon fill="#A80036" points="410.5,254.2656,420.5,258.2656,410.5,262.2656,414.5,258.2656" style="stroke: #A80036; stroke-width: 1.0;"/><line style="stroke: #A80036; stroke-width: 1.0;" x1="62" x2="416.5" y1="258.2656" y2="258.2656"/><text fill="#000000" font-family="sans-serif" font-size="14" lengthAdjust="spacingAndGlyphs" textLength="61" x="69" y="252.9639">question</text><polygon fill="#A80036" points="719,284.5625,729,288.5625,719,292.5625,723,288.5625" style="stroke: #A80036; stroke-width: 1.0;"/><line style="stroke: #A80036; stroke-width: 1.0;" x1="422.5" x2="725" y1="288.5625" y2="288.5625"/><text fill="#000000" font-family="sans-serif" font-size="14" lengthAdjust="spacingAndGlyphs" textLength="226" x="429.5" y="283.2607">self_awareness_check(question)</text><polygon fill="#A80036" points="1718,331.1563,1728,335.1563,1718,339.1563,1722,335.1563" style="stroke: #A80036; stroke-width: 1.0;"/><line style="stroke: #A80036; stroke-width: 1.0;" x1="731" x2="1724" y1="335.1563" y2="335.1563"/><text fill="#000000" font-family="sans-serif" font-size="14" lengthAdjust="spacingAndGlyphs" textLength="158" x="738" y="313.5576">self-awareness prompt</text><text fill="#000000" font-family="sans-serif" font-size="14" lengthAdjust="spacingAndGlyphs" textLength="87" x="738" y="329.8545">(JSON mode)</text><polygon fill="#A80036" points="742,361.4531,732,365.4531,742,369.4531,738,365.4531" style="stroke: #A80036; stroke-width: 1.0;"/><line style="stroke: #A80036; stroke-width: 1.0; stroke-dasharray: 2.0,2.0;" x1="736" x2="1729" y1="365.4531" y2="365.4531"/><text fill="#000000" font-family="sans-serif" font-size="14" lengthAdjust="spacingAndGlyphs" textLength="209" x="748" y="360.1514">{needs_tool, answer, reason}</text><path d="M23,380.4531 L87,380.4531 L87,388.4531 L77,398.4531 L23,398.4531 L23,380.4531 " fill="#EEEEEE" style="stroke: #000000; stroke-width: 1.0;"/><rect fill="none" height="1455.8125" style="stroke: #000000; stroke-width: 2.0;" width="1783.5" x="23" y="380.4531"/><text fill="#000000" font-family="sans-serif" font-size="14" font-weight="bold" lengthAdjust="spacingAndGlyphs" textLength="19" x="38" y="394.4482">alt</text><text fill="#000000" font-family="sans-serif" font-size="14" font-weight="bold" lengthAdjust="spacingAndGlyphs" textLength="168" x="102" y="395.4482">[exception in SMART]</text><polygon fill="#A80036" points="433.5,418.3438,423.5,422.3438,433.5,426.3438,429.5,422.3438" style="stroke: #A80036; stroke-width: 1.0;"/><line style="stroke: #A80036; stroke-width: 1.0; stroke-dasharray: 2.0,2.0;" x1="427.5" x2="730" y1="422.3438" y2="422.3438"/><text fill="#000000" font-family="sans-serif" font-size="14" lengthAdjust="spacingAndGlyphs" textLength="113" x="439.5" y="417.042">raises Exception</text><polygon fill="#A80036" points="73,448.6406,63,452.6406,73,456.6406,69,452.6406" style="stroke: #A80036; stroke-width: 1.0;"/><line style="stroke: #A80036; stroke-width: 1.0; stroke-dasharray: 2.0,2.0;" x1="67" x2="421.5" y1="452.6406" y2="452.6406"/><text fill="#000000" font-family="sans-serif" font-size="14" lengthAdjust="spacingAndGlyphs" textLength="233" x="79" y="447.3389">"Sorry, something went wrong: ..."</text><line style="stroke: #000000; stroke-width: 1.0; stroke-dasharray: 2.0,2.0;" x1="23" x2="1806.5" y1="461.6406" y2="461.6406"/><text fill="#000000" font-family="sans-serif" font-size="14" font-weight="bold" lengthAdjust="spacingAndGlyphs" textLength="161" x="28" y="474.6357">[needs_tool = False]</text><polygon fill="#A80036" points="433.5,497.2344,423.5,501.2344,433.5,505.2344,429.5,501.2344" style="stroke: #A80036; stroke-width: 1.0;"/><line style="stroke: #A80036; stroke-width: 1.0; stroke-dasharray: 2.0,2.0;" x1="427.5" x2="730" y1="501.2344" y2="501.2344"/><text fill="#000000" font-family="sans-serif" font-size="14" lengthAdjust="spacingAndGlyphs" textLength="229" x="439.5" y="495.9326">{needs_tool: False, answer: "..."}</text><path d="M33,516.2344 L104,516.2344 L104,524.2344 L94,534.2344 L33,534.2344 L33,516.2344 " fill="#EEEEEE" style="stroke: #000000; stroke-width: 1.0;"/><rect fill="none" height="49.8906" style="stroke: #000000; stroke-width: 2.0;" width="435.5" x="33" y="516.2344"/><text fill="#000000" font-family="sans-serif" font-size="14" font-weight="bold" lengthAdjust="spacingAndGlyphs" textLength="26" x="48" y="530.2295">opt</text><text fill="#000000" font-family="sans-serif" font-size="14" font-weight="bold" lengthAdjust="spacingAndGlyphs" textLength="77" x="119" y="531.2295">[verbose]</text><polygon fill="#A80036" points="73,554.125,63,558.125,73,562.125,69,558.125" style="stroke: #A80036; stroke-width: 1.0;"/><line style="stroke: #A80036; stroke-width: 1.0; stroke-dasharray: 2.0,2.0;" x1="67" x2="421.5" y1="558.125" y2="558.125"/><text fill="#000000" font-family="sans-serif" font-size="14" lengthAdjust="spacingAndGlyphs" textLength="292" x="79" y="552.8232">"[SMART] Answering directly — &lt;reason&gt;"</text><polygon fill="#A80036" points="73,591.4219,63,595.4219,73,599.4219,69,595.4219" style="stroke: #A80036; stroke-width: 1.0;"/><line style="stroke: #A80036; stroke-width: 1.0; stroke-dasharray: 2.0,2.0;" x1="67" x2="421.5" y1="595.4219" y2="595.4219"/><text fill="#000000" font-family="sans-serif" font-size="14" lengthAdjust="spacingAndGlyphs" textLength="177" x="79" y="590.1201">"Agent: &lt;direct answer&gt;"</text><line style="stroke: #000000; stroke-width: 1.0; stroke-dasharray: 2.0,2.0;" x1="23" x2="1806.5" y1="604.4219" y2="604.4219"/><text fill="#000000" font-family="sans-serif" font-size="14" font-weight="bold" lengthAdjust="spacingAndGlyphs" textLength="157" x="28" y="617.417">[needs_tool = True]</text><polygon fill="#A80036" points="433.5,640.0156,423.5,644.0156,433.5,648.0156,429.5,644.0156" style="stroke: #A80036; stroke-width: 1.0;"/><line style="stroke: #A80036; stroke-width: 1.0; stroke-dasharray: 2.0,2.0;" x1="427.5" x2="730" y1="644.0156" y2="644.0156"/><text fill="#000000" font-family="sans-serif" font-size="14" lengthAdjust="spacingAndGlyphs" textLength="240" x="439.5" y="638.7139">{needs_tool: True, answer: None}</text><path d="M33,659.0156 L104,659.0156 L104,667.0156 L94,677.0156 L33,677.0156 L33,659.0156 " fill="#EEEEEE" style="stroke: #000000; stroke-width: 1.0;"/><rect fill="none" height="49.8906" style="stroke: #000000; stroke-width: 2.0;" width="435.5" x="33" y="659.0156"/><text fill="#000000" font-family="sans-serif" font-size="14" font-weight="bold" lengthAdjust="spacingAndGlyphs" textLength="26" x="48" y="673.0107">opt</text><text fill="#000000" font-family="sans-serif" font-size="14" font-weight="bold" lengthAdjust="spacingAndGlyphs" textLength="77" x="119" y="674.0107">[verbose]</text><polygon fill="#A80036" points="73,696.9063,63,700.9063,73,704.9063,69,700.9063" style="stroke: #A80036; stroke-width: 1.0;"/><line style="stroke: #A80036; stroke-width: 1.0; stroke-dasharray: 2.0,2.0;" x1="67" x2="421.5" y1="700.9063" y2="700.9063"/><text fill="#000000" font-family="sans-serif" font-size="14" lengthAdjust="spacingAndGlyphs" textLength="259" x="79" y="695.6045">"[SMART] Tool required — &lt;reason&gt;"</text><polygon fill="#A80036" points="892.5,734.2031,902.5,738.2031,892.5,742.2031,896.5,738.2031" style="stroke: #A80036; stroke-width: 1.0;"/><line style="stroke: #A80036; stroke-width: 1.0;" x1="422.5" x2="898.5" y1="738.2031" y2="738.2031"/><text fill="#000000" font-family="sans-serif" font-size="14" lengthAdjust="spacingAndGlyphs" textLength="94" x="429.5" y="732.9014">run(question)</text><polygon fill="#A80036" points="1718,780.7969,1728,784.7969,1718,788.7969,1722,784.7969" style="stroke: #A80036; stroke-width: 1.0;"/><line style="stroke: #A80036; stroke-width: 1.0;" x1="904.5" x2="1724" y1="784.7969" y2="784.7969"/><text fill="#000000" font-family="sans-serif" font-size="14" lengthAdjust="spacingAndGlyphs" textLength="113" x="911.5" y="763.1982">tool filter prompt</text><text fill="#000000" font-family="sans-serif" font-size="14" lengthAdjust="spacingAndGlyphs" textLength="87" x="911.5" y="779.4951">(JSON mode)</text><polygon fill="#A80036" points="915.5,811.0938,905.5,815.0938,915.5,819.0938,911.5,815.0938" style="stroke: #A80036; stroke-width: 1.0;"/><line style="stroke: #A80036; stroke-width: 1.0; stroke-dasharray: 2.0,2.0;" x1="909.5" x2="1729" y1="815.0938" y2="815.0938"/><text fill="#000000" font-family="sans-serif" font-size="14" lengthAdjust="spacingAndGlyphs" textLength="134" x="921.5" y="809.792">{category, reason}</text><line style="stroke: #A80036; stroke-width: 1.0;" x1="904.5" x2="946.5" y1="861.6875" y2="861.6875"/><line style="stroke: #A80036; stroke-width: 1.0;" x1="946.5" x2="946.5" y1="861.6875" y2="874.6875"/><line style="stroke: #A80036; stroke-width: 1.0;" x1="905.5" x2="946.5" y1="874.6875" y2="874.6875"/><polygon fill="#A80036" points="915.5,870.6875,905.5,874.6875,915.5,878.6875,911.5,874.6875" style="stroke: #A80036; stroke-width: 1.0;"/><text fill="#000000" font-family="sans-serif" font-size="14" lengthAdjust="spacingAndGlyphs" textLength="124" x="911.5" y="840.0889">select tool subset</text><text fill="#000000" font-family="sans-serif" font-size="14" lengthAdjust="spacingAndGlyphs" textLength="222" x="911.5" y="856.3857">(or ALL_TOOLS if unknown/error)</text><path d="M366.5,889.6875 L445.5,889.6875 L445.5,897.6875 L435.5,907.6875 L366.5,907.6875 L366.5,889.6875 " fill="#EEEEEE" style="stroke: #000000; stroke-width: 1.0;"/><rect fill="none" height="672.3125" style="stroke: #000000; stroke-width: 2.0;" width="1430" x="366.5" y="889.6875"/><text fill="#000000" font-family="sans-serif" font-size="14" font-weight="bold" lengthAdjust="spacingAndGlyphs" textLength="34" x="381.5" y="903.6826">loop</text><text fill="#000000" font-family="sans-serif" font-size="14" font-weight="bold" lengthAdjust="spacingAndGlyphs" textLength="351" x="460.5" y="904.6826">[self-reflection retry (max_retries attempts)]</text><polygon fill="#A80036" points="1128.5,927.5781,1138.5,931.5781,1128.5,935.5781,1132.5,931.5781" style="stroke: #A80036; stroke-width: 1.0;"/><line style="stroke: #A80036; stroke-width: 1.0;" x1="904.5" x2="1134.5" y1="931.5781" y2="931.5781"/><text fill="#000000" font-family="sans-serif" font-size="14" lengthAdjust="spacingAndGlyphs" textLength="149" x="911.5" y="926.2764">solve(question, tools)</text><path d="M812.5,946.5781 L891.5,946.5781 L891.5,954.5781 L881.5,964.5781 L812.5,964.5781 L812.5,946.5781 " fill="#EEEEEE" style="stroke: #000000; stroke-width: 1.0;"/><rect fill="none" height="436.3438" style="stroke: #000000; stroke-width: 2.0;" width="974" x="812.5" y="946.5781"/><text fill="#000000" font-family="sans-serif" font-size="14" font-weight="bold" lengthAdjust="spacingAndGlyphs" textLength="34" x="827.5" y="960.5732">loop</text><text fill="#000000" font-family="sans-serif" font-size="14" font-weight="bold" lengthAdjust="spacingAndGlyphs" textLength="281" x="906.5" y="961.5732">[agent solver loop (max_iterations)]</text><polygon fill="#A80036" points="1718,984.4688,1728,988.4688,1718,992.4688,1722,988.4688" style="stroke: #A80036; stroke-width: 1.0;"/><line style="stroke: #A80036; stroke-width: 1.0;" x1="1140.5" x2="1724" y1="988.4688" y2="988.4688"/><text fill="#000000" font-family="sans-serif" font-size="14" lengthAdjust="spacingAndGlyphs" textLength="236" x="1147.5" y="983.167">messages + filtered tool schemas</text><polygon fill="#A80036" points="1151.5,1014.7656,1141.5,1018.7656,1151.5,1022.7656,1147.5,1018.7656" style="stroke: #A80036; stroke-width: 1.0;"/><line style="stroke: #A80036; stroke-width: 1.0; stroke-dasharray: 2.0,2.0;" x1="1145.5" x2="1729" y1="1018.7656" y2="1018.7656"/><text fill="#000000" font-family="sans-serif" font-size="14" lengthAdjust="spacingAndGlyphs" textLength="66" x="1157.5" y="1013.4639">response</text><path d="M822.5,1033.7656 L886.5,1033.7656 L886.5,1041.7656 L876.5,1051.7656 L822.5,1051.7656 L822.5,1033.7656 " fill="#EEEEEE" style="stroke: #000000; stroke-width: 1.0;"/><rect fill="none" height="342.1563" style="stroke: #000000; stroke-width: 2.0;" width="871" x="822.5" y="1033.7656"/><text fill="#000000" font-family="sans-serif" font-size="14" font-weight="bold" lengthAdjust="spacingAndGlyphs" textLength="19" x="837.5" y="1047.7607">alt</text><text fill="#000000" font-family="sans-serif" font-size="14" font-weight="bold" lengthAdjust="spacingAndGlyphs" textLength="230" x="901.5" y="1048.7607">[no tool_calls — final answer]</text><polygon fill="#A80036" points="915.5,1071.6563,905.5,1075.6563,915.5,1079.6563,911.5,1075.6563" style="stroke: #A80036; stroke-width: 1.0;"/><line style="stroke: #A80036; stroke-width: 1.0; stroke-dasharray: 2.0,2.0;" x1="909.5" x2="1139.5" y1="1075.6563" y2="1075.6563"/><text fill="#000000" font-family="sans-serif" font-size="14" lengthAdjust="spacingAndGlyphs" textLength="93" x="921.5" y="1070.3545">answer string</text><line style="stroke: #000000; stroke-width: 1.0; stroke-dasharray: 2.0,2.0;" x1="822.5" x2="1693.5" y1="1084.6563" y2="1084.6563"/><text fill="#000000" font-family="sans-serif" font-size="14" font-weight="bold" lengthAdjust="spacingAndGlyphs" textLength="298" x="827.5" y="1097.6514">[tool_calls present (parallel, Phase 8)]</text><path d="M1091.5,1108.9531 L1170.5,1108.9531 L1170.5,1116.9531 L1160.5,1126.9531 L1091.5,1126.9531 L1091.5,1108.9531 " fill="#EEEEEE" style="stroke: #000000; stroke-width: 1.0;"/><rect fill="none" height="200.375" style="stroke: #000000; stroke-width: 2.0;" width="592" x="1091.5" y="1108.9531"/><text fill="#000000" font-family="sans-serif" font-size="14" font-weight="bold" lengthAdjust="spacingAndGlyphs" textLength="34" x="1106.5" y="1122.9482">loop</text><text fill="#000000" font-family="sans-serif" font-size="14" font-weight="bold" lengthAdjust="spacingAndGlyphs" textLength="322" x="1185.5" y="1123.9482">[for each tool_call in response.tool_calls]</text><polygon fill="#A80036" points="1362.5,1146.8438,1372.5,1150.8438,1362.5,1154.8438,1366.5,1150.8438" style="stroke: #A80036; stroke-width: 1.0;"/><line style="stroke: #A80036; stroke-width: 1.0;" x1="1140.5" x2="1368.5" y1="1150.8438" y2="1150.8438"/><text fill="#000000" font-family="sans-serif" font-size="14" lengthAdjust="spacingAndGlyphs" textLength="210" x="1147.5" y="1145.542">dispatch(tool_name, raw_args)</text><line style="stroke: #A80036; stroke-width: 1.0;" x1="1374.5" x2="1416.5" y1="1197.4375" y2="1197.4375"/><line style="stroke: #A80036; stroke-width: 1.0;" x1="1416.5" x2="1416.5" y1="1197.4375" y2="1210.4375"/><line style="stroke: #A80036; stroke-width: 1.0;" x1="1375.5" x2="1416.5" y1="1210.4375" y2="1210.4375"/><polygon fill="#A80036" points="1385.5,1206.4375,1375.5,1210.4375,1385.5,1214.4375,1381.5,1210.4375" style="stroke: #A80036; stroke-width: 1.0;"/><text fill="#000000" font-family="sans-serif" font-size="14" lengthAdjust="spacingAndGlyphs" textLength="86" x="1381.5" y="1175.8389">validate args</text><text fill="#000000" font-family="sans-serif" font-size="14" lengthAdjust="spacingAndGlyphs" textLength="132" x="1381.5" y="1192.1357">(Pydantic, Phase 6)</text><polygon fill="#A80036" points="1542.5,1236.7344,1552.5,1240.7344,1542.5,1244.7344,1546.5,1240.7344" style="stroke: #A80036; stroke-width: 1.0;"/><line style="stroke: #A80036; stroke-width: 1.0;" x1="1374.5" x2="1548.5" y1="1240.7344" y2="1240.7344"/><text fill="#000000" font-family="sans-serif" font-size="14" lengthAdjust="spacingAndGlyphs" textLength="86" x="1381.5" y="1235.4326">execute tool</text><polygon fill="#A80036" points="1385.5,1267.0313,1375.5,1271.0313,1385.5,1275.0313,1381.5,1271.0313" style="stroke: #A80036; stroke-width: 1.0;"/><line style="stroke: #A80036; stroke-width: 1.0; stroke-dasharray: 2.0,2.0;" x1="1379.5" x2="1553.5" y1="1271.0313" y2="1271.0313"/><text fill="#000000" font-family="sans-serif" font-size="14" lengthAdjust="spacingAndGlyphs" textLength="68" x="1391.5" y="1265.7295">result dict</text><polygon fill="#A80036" points="1151.5,1297.3281,1141.5,1301.3281,1151.5,1305.3281,1147.5,1301.3281" style="stroke: #A80036; stroke-width: 1.0;"/><line style="stroke: #A80036; stroke-width: 1.0; stroke-dasharray: 2.0,2.0;" x1="1145.5" x2="1373.5" y1="1301.3281" y2="1301.3281"/><text fill="#000000" font-family="sans-serif" font-size="14" lengthAdjust="spacingAndGlyphs" textLength="68" x="1157.5" y="1296.0264">result dict</text><line style="stroke: #A80036; stroke-width: 1.0;" x1="1140.5" x2="1182.5" y1="1354.9219" y2="1354.9219"/><line style="stroke: #A80036; stroke-width: 1.0;" x1="1182.5" x2="1182.5" y1="1354.9219" y2="1367.9219"/><line style="stroke: #A80036; stroke-width: 1.0;" x1="1141.5" x2="1182.5" y1="1367.9219" y2="1367.9219"/><polygon fill="#A80036" points="1151.5,1363.9219,1141.5,1367.9219,1151.5,1371.9219,1147.5,1367.9219" style="stroke: #A80036; stroke-width: 1.0;"/><text fill="#000000" font-family="sans-serif" font-size="14" lengthAdjust="spacingAndGlyphs" textLength="152" x="1147.5" y="1333.3232">append all tool results</text><text fill="#000000" font-family="sans-serif" font-size="14" lengthAdjust="spacingAndGlyphs" textLength="90" x="1147.5" y="1349.6201">to messages</text><path d="M376.5,1396.9219 L440.5,1396.9219 L440.5,1404.9219 L430.5,1414.9219 L376.5,1414.9219 L376.5,1396.9219 " fill="#EEEEEE" style="stroke: #000000; stroke-width: 1.0;"/><rect fill="none" height="158.0781" style="stroke: #000000; stroke-width: 2.0;" width="813" x="376.5" y="1396.9219"/><text fill="#000000" font-family="sans-serif" font-size="14" font-weight="bold" lengthAdjust="spacingAndGlyphs" textLength="19" x="391.5" y="1410.917">alt</text><text fill="#000000" font-family="sans-serif" font-size="14" font-weight="bold" lengthAdjust="spacingAndGlyphs" textLength="196" x="455.5" y="1411.917">[agent returned answer]</text><polygon fill="#A80036" points="915.5,1434.8125,905.5,1438.8125,915.5,1442.8125,911.5,1438.8125" style="stroke: #A80036; stroke-width: 1.0;"/><line style="stroke: #A80036; stroke-width: 1.0; stroke-dasharray: 2.0,2.0;" x1="909.5" x2="1139.5" y1="1438.8125" y2="1438.8125"/><text fill="#000000" font-family="sans-serif" font-size="14" lengthAdjust="spacingAndGlyphs" textLength="93" x="921.5" y="1433.5107">answer string</text><polygon fill="#A80036" points="433.5,1465.1094,423.5,1469.1094,433.5,1473.1094,429.5,1469.1094" style="stroke: #A80036; stroke-width: 1.0;"/><line style="stroke: #A80036; stroke-width: 1.0; stroke-dasharray: 2.0,2.0;" x1="427.5" x2="903.5" y1="1469.1094" y2="1469.1094"/><text fill="#000000" font-family="sans-serif" font-size="14" lengthAdjust="spacingAndGlyphs" textLength="93" x="439.5" y="1463.8076">answer string</text><line style="stroke: #000000; stroke-width: 1.0; stroke-dasharray: 2.0,2.0;" x1="376.5" x2="1189.5" y1="1478.1094" y2="1478.1094"/><text fill="#000000" font-family="sans-serif" font-size="14" font-weight="bold" lengthAdjust="spacingAndGlyphs" textLength="332" x="381.5" y="1491.1045">[agent returned None (max iterations hit)]</text><line style="stroke: #A80036; stroke-width: 1.0;" x1="904.5" x2="946.5" y1="1534" y2="1534"/><line style="stroke: #A80036; stroke-width: 1.0;" x1="946.5" x2="946.5" y1="1534" y2="1547"/><line style="stroke: #A80036; stroke-width: 1.0;" x1="905.5" x2="946.5" y1="1547" y2="1547"/><polygon fill="#A80036" points="915.5,1543,905.5,1547,915.5,1551,911.5,1547" style="stroke: #A80036; stroke-width: 1.0;"/><text fill="#000000" font-family="sans-serif" font-size="14" lengthAdjust="spacingAndGlyphs" textLength="176" x="911.5" y="1512.4014">widen tools = ALL_TOOLS</text><text fill="#000000" font-family="sans-serif" font-size="14" lengthAdjust="spacingAndGlyphs" textLength="167" x="911.5" y="1528.6982">(self-reflection, Phase 9)</text><path d="M33,1576 L97,1576 L97,1584 L87,1594 L33,1594 L33,1576 " fill="#EEEEEE" style="stroke: #000000; stroke-width: 1.0;"/><rect fill="none" height="159.0781" style="stroke: #000000; stroke-width: 2.0;" width="953.5" x="33" y="1576"/><text fill="#000000" font-family="sans-serif" font-size="14" font-weight="bold" lengthAdjust="spacingAndGlyphs" textLength="19" x="48" y="1589.9951">alt</text><text fill="#000000" font-family="sans-serif" font-size="14" font-weight="bold" lengthAdjust="spacingAndGlyphs" textLength="233" x="112" y="1590.9951">[answer found within retries]</text><polygon fill="#A80036" points="433.5,1613.8906,423.5,1617.8906,433.5,1621.8906,429.5,1617.8906" style="stroke: #A80036; stroke-width: 1.0;"/><line style="stroke: #A80036; stroke-width: 1.0; stroke-dasharray: 2.0,2.0;" x1="427.5" x2="903.5" y1="1617.8906" y2="1617.8906"/><text fill="#000000" font-family="sans-serif" font-size="14" lengthAdjust="spacingAndGlyphs" textLength="81" x="439.5" y="1612.5889">final answer</text><polygon fill="#A80036" points="73,1644.1875,63,1648.1875,73,1652.1875,69,1648.1875" style="stroke: #A80036; stroke-width: 1.0;"/><line style="stroke: #A80036; stroke-width: 1.0; stroke-dasharray: 2.0,2.0;" x1="67" x2="421.5" y1="1648.1875" y2="1648.1875"/><text fill="#000000" font-family="sans-serif" font-size="14" lengthAdjust="spacingAndGlyphs" textLength="165" x="79" y="1642.8857">"Agent: &lt;final answer&gt;"</text><line style="stroke: #000000; stroke-width: 1.0; stroke-dasharray: 2.0,2.0;" x1="33" x2="986.5" y1="1657.1875" y2="1657.1875"/><text fill="#000000" font-family="sans-serif" font-size="14" font-weight="bold" lengthAdjust="spacingAndGlyphs" textLength="175" x="38" y="1670.1826">[all retries exhausted]</text><polygon fill="#A80036" points="433.5,1692.7813,423.5,1696.7813,433.5,1700.7813,429.5,1696.7813" style="stroke: #A80036; stroke-width: 1.0;"/><line style="stroke: #A80036; stroke-width: 1.0; stroke-dasharray: 2.0,2.0;" x1="427.5" x2="903.5" y1="1696.7813" y2="1696.7813"/><text fill="#000000" font-family="sans-serif" font-size="14" lengthAdjust="spacingAndGlyphs" textLength="119" x="439.5" y="1691.4795">fallback message</text><polygon fill="#A80036" points="73,1723.0781,63,1727.0781,73,1731.0781,69,1727.0781" style="stroke: #A80036; stroke-width: 1.0;"/><line style="stroke: #A80036; stroke-width: 1.0; stroke-dasharray: 2.0,2.0;" x1="67" x2="421.5" y1="1727.0781" y2="1727.0781"/><text fill="#000000" font-family="sans-serif" font-size="14" lengthAdjust="spacingAndGlyphs" textLength="279" x="79" y="1721.7764">"Agent: I was unable to find an answer..."</text><path d="M33,1749.0781 L97,1749.0781 L97,1757.0781 L87,1767.0781 L33,1767.0781 L33,1749.0781 " fill="#EEEEEE" style="stroke: #000000; stroke-width: 1.0;"/><rect fill="none" height="80.1875" style="stroke: #000000; stroke-width: 2.0;" width="953.5" x="33" y="1749.0781"/><text fill="#000000" font-family="sans-serif" font-size="14" font-weight="bold" lengthAdjust="spacingAndGlyphs" textLength="19" x="48" y="1763.0732">alt</text><text fill="#000000" font-family="sans-serif" font-size="14" font-weight="bold" lengthAdjust="spacingAndGlyphs" textLength="184" x="112" y="1764.0732">[exception in retriever]</text><polygon fill="#A80036" points="433.5,1786.9688,423.5,1790.9688,433.5,1794.9688,429.5,1790.9688" style="stroke: #A80036; stroke-width: 1.0;"/><line style="stroke: #A80036; stroke-width: 1.0; stroke-dasharray: 2.0,2.0;" x1="427.5" x2="903.5" y1="1790.9688" y2="1790.9688"/><text fill="#000000" font-family="sans-serif" font-size="14" lengthAdjust="spacingAndGlyphs" textLength="113" x="439.5" y="1785.667">raises Exception</text><polygon fill="#A80036" points="73,1817.2656,63,1821.2656,73,1825.2656,69,1821.2656" style="stroke: #A80036; stroke-width: 1.0;"/><line style="stroke: #A80036; stroke-width: 1.0; stroke-dasharray: 2.0,2.0;" x1="67" x2="421.5" y1="1821.2656" y2="1821.2656"/><text fill="#000000" font-family="sans-serif" font-size="14" lengthAdjust="spacingAndGlyphs" textLength="283" x="79" y="1815.9639">"Agent: Sorry, something went wrong: ..."</text><!--MD5=[3414c4a3db6b0559ecc5160ab811af49]
@startuml full-pipeline
title Smart AnyTool Agent - Full Pipeline Sequence
skinparam defaultFontSize 14

actor User

box "CLI Layer (Phase 10)" #LightYellow
  participant "main.py\nrun_cli()" as CLI
end box

box "SMART Layer (Phase 4)" #LightBlue
  participant "smart.py\nself_awareness_check()" as SMART
end box

box "AnyTool Layer (Phases 5-9)" #LightGreen
  participant "retriever.py\nfilter_tools() / run()" as Retriever
  participant "agent.py\nsolve()" as Agent
end box

box "Tool Layer (Phases 1-3, 6)" #LightPink
  participant "validation.py\ndispatch()" as Validation
  participant "tools.py\ncalculator / weather / search /\ntext_intelligence (backend API) /\ndatabase (Postgres, read-only)" as Tools
end box

participant "OpenAI API" as OpenAI

User -> CLI : start (python main.py)
CLI - -> User : welcome banner

loop REPL — one question per iteration

  User -> CLI : question

  CLI -> SMART : self_awareness_check(question)
  SMART -> OpenAI : self-awareness prompt\n(JSON mode)
  OpenAI - -> SMART : {needs_tool, answer, reason}

  alt exception in SMART
    SMART - -> CLI : raises Exception
    CLI - -> User : "Sorry, something went wrong: ..."

  else needs_tool = False
    SMART - -> CLI : {needs_tool: False, answer: "..."}
    opt verbose
      CLI - -> User : "[SMART] Answering directly — <reason>"
    end
    CLI - -> User : "Agent: <direct answer>"

  else needs_tool = True
    SMART - -> CLI : {needs_tool: True, answer: None}
    opt verbose
      CLI - -> User : "[SMART] Tool required — <reason>"
    end

    CLI -> Retriever : run(question)

    Retriever -> OpenAI : tool filter prompt\n(JSON mode)
    OpenAI - -> Retriever : {category, reason}
    Retriever -> Retriever : select tool subset\n(or ALL_TOOLS if unknown/error)

    loop self-reflection retry (max_retries attempts)

      Retriever -> Agent : solve(question, tools)

      loop agent solver loop (max_iterations)

        Agent -> OpenAI : messages + filtered tool schemas
        OpenAI - -> Agent : response

        alt no tool_calls — final answer
          Agent - -> Retriever : answer string
        else tool_calls present (parallel, Phase 8)
          loop for each tool_call in response.tool_calls
            Agent -> Validation : dispatch(tool_name, raw_args)
            Validation -> Validation : validate args\n(Pydantic, Phase 6)
            Validation -> Tools : execute tool
            Tools - -> Validation : result dict
            Validation - -> Agent : result dict
          end
          Agent -> Agent : append all tool results\nto messages
        end

      end

      alt agent returned answer
        Agent - -> Retriever : answer string
        Retriever - -> CLI : answer string
      else agent returned None (max iterations hit)
        Retriever -> Retriever : widen tools = ALL_TOOLS\n(self-reflection, Phase 9)
      end

    end

    alt answer found within retries
      Retriever - -> CLI : final answer
      CLI - -> User : "Agent: <final answer>"
    else all retries exhausted
      Retriever - -> CLI : fallback message
      CLI - -> User : "Agent: I was unable to find an answer..."
    end

    alt exception in retriever
      Retriever - -> CLI : raises Exception
      CLI - -> User : "Agent: Sorry, something went wrong: ..."
    end

  end

end

@enduml

PlantUML version 1.2020.02(Sun Mar 01 10:22:07 UTC 2020)
(GPL source distribution)
Java Runtime: OpenJDK Runtime Environment
JVM: OpenJDK 64-Bit Server VM
Java Version: 17.0.20.1+1
Operating System: Linux
Default Encoding: UTF-8
Language: en
Country: null
--></g></svg>