<?xml version="1.0" encoding="UTF-8" standalone="no"?><svg xmlns="http://www.w3.org/2000/svg" xmlns:xlink="http://www.w3.org/1999/xlink" contentScriptType="application/ecmascript" contentStyleType="text/css" height="1941px" preserveAspectRatio="none" style="width:1818px;height:1941px;" version="1.1" viewBox="0 0 1818 1941" width="1818px" zoomAndPan="magnify"><defs><filter height="300%" id="f1tmr80zfu85uj" width="300%" x="-1" y="-1"><feGaussianBlur result="blurOut" stdDeviation="2.0"/><feColorMatrix in="blurOut" result="blurOut2" type="matrix" values="0 0 0 0 0 0 0 0 0 0 0 0 0 0 0 0 0 0 .4 0"/><feOffset dx="4.0" dy="4.0" in="blurOut2" result="blurOut3"/><feBlend in="SourceGraphic" in2="blurOut3" mode="normal"/></filter></defs><g><text fill="#000000" font-family="sans-serif" font-size="14" lengthAdjust="spacingAndGlyphs" textLength="313" x="753.75" y="22.9951">Smart AnyTool Agent - Full Pipeline Sequence</text><rect fill="#FFFFE0" height="1895.9688" style="stroke: #A80036; stroke-width: 1.0;" width="169" x="338" y="34.2969"/><text fill="#000000" font-family="sans-serif" font-size="14" font-weight="bold" lengthAdjust="spacingAndGlyphs" textLength="163" x="341" y="47.292">CLI Layer (Phase 10)</text><rect fill="#ADD8E6" height="1895.9688" style="stroke: #A80036; stroke-width: 1.0;" width="191" x="635.5" y="34.2969"/><text fill="#000000" font-family="sans-serif" font-size="14" font-weight="bold" lengthAdjust="spacingAndGlyphs" textLength="183" x="639.5" y="47.292">SMART Layer (Phase 4)</text><rect fill="#90EE90" height="1895.9688" style="stroke: #A80036; stroke-width: 1.0;" width="355" x="828.5" y="34.2969"/><text fill="#000000" font-family="sans-serif" font-size="14" font-weight="bold" lengthAdjust="spacingAndGlyphs" textLength="218" x="897" y="47.292">AnyTool Layer (Phases 5-9)</text><rect fill="#FFB6C1" height="1895.9688" style="stroke: #A80036; stroke-width: 1.0;" width="349" x="1319.5" y="34.2969"/><text fill="#000000" font-family="sans-serif" font-size="14" font-weight="bold" lengthAdjust="spacingAndGlyphs" textLength="208" x="1390" y="47.292">Tool Layer (Phases 1-3, 6)</text><rect fill="#FFFFFF" filter="url(#f1tmr80zfu85uj)" height="1626.8906" style="stroke: #000000; stroke-width: 2.0;" width="1794.5" x="13" y="200.0781"/><rect fill="#FFFFFF" filter="url(#f1tmr80zfu85uj)" height="1455.8125" style="stroke: #000000; stroke-width: 2.0;" width="1774.5" x="23" y="364.1563"/><rect fill="#FFFFFF" height="142.7813" style="stroke: none; stroke-width: 1.0;" width="1774.5" x="23" y="444.3438"/><rect fill="#FFFFFF" filter="url(#f1tmr80zfu85uj)" height="49.8906" style="stroke: #000000; stroke-width: 2.0;" width="435.5" x="33" y="499.9375"/><rect fill="#FFFFFF" height="1232.8438" style="stroke: none; stroke-width: 1.0;" width="1774.5" x="23" y="587.125"/><rect fill="#FFFFFF" filter="url(#f1tmr80zfu85uj)" height="49.8906" style="stroke: #000000; stroke-width: 2.0;" width="435.5" x="33" y="642.7188"/><rect fill="#FFFFFF" filter="url(#f1tmr80zfu85uj)" height="672.3125" style="stroke: #000000; stroke-width: 2.0;" width="1421" x="366.5" y="873.3906"/><rect fill="#FFFFFF" filter="url(#f1tmr80zfu85uj)" height="436.3438" style="stroke: #000000; stroke-width: 2.0;" width="965" x="812.5" y="930.2813"/><rect fill="#FFFFFF" filter="url(#f1tmr80zfu85uj)" height="342.1563" style="stroke: #000000; stroke-width: 2.0;" width="862" x="822.5" y="1017.4688"/><rect fill="#FFFFFF" height="292.2656" style="stroke: none; stroke-width: 1.0;" width="862" x="822.5" y="1067.3594"/><rect fill="#FFFFFF" filter="url(#f1tmr80zfu85uj)" height="200.375" style="stroke: #000000; stroke-width: 2.0;" width="583" x="1091.5" y="1092.6563"/><rect fill="#FFFFFF" filter="url(#f1tmr80zfu85uj)" height="158.0781" style="stroke: #000000; stroke-width: 2.0;" width="813" x="376.5" y="1380.625"/><rect fill="#FFFFFF" height="77.8906" style="stroke: none; stroke-width: 1.0;" width="813" x="376.5" y="1460.8125"/><rect fill="#FFFFFF" filter="url(#f1tmr80zfu85uj)" height="159.0781" style="stroke: #000000; stroke-width: 2.0;" width="953.5" x="33" y="1559.7031"/><rect fill="#FFFFFF" height="78.8906" style="stroke: none; stroke-width: 1.0;" width="953.5" x="33" y="1639.8906"/><rect fill="#FFFFFF" filter="url(#f1tmr80zfu85uj)" height="80.1875" style="stroke: #000000; stroke-width: 2.0;" width="953.5" x="33" y="1732.7813"/><line style="stroke: #A80036; stroke-width: 1.0; stroke-dasharray: 5.0,5.0;" x1="62" x2="62" y1="122.4844" y2="1843.9688"/><line style="stroke: #A80036; stroke-width: 1.0; stroke-dasharray: 5.0,5.0;" x1="422.5" x2="422.5" y1="122.4844" y2="1843.9688"/><line style="stroke: #A80036; stroke-width: 1.0; stroke-dasharray: 5.0,5.0;" x1="730.5" x2="730.5" y1="122.4844" y2="1843.9688"/><line style="stroke: #A80036; stroke-width: 1.0; stroke-dasharray: 5.0,5.0;" x1="904.5" x2="904.5" y1="122.4844" y2="1843.9688"/><line style="stroke: #A80036; stroke-width: 1.0; stroke-dasharray: 5.0,5.0;" x1="1140.5" x2="1140.5" y1="122.4844" y2="1843.9688"/><line style="stroke: #A80036; stroke-width: 1.0; stroke-dasharray: 5.0,5.0;" x1="1374.5" x2="1374.5" y1="122.4844" y2="1843.9688"/><line style="stroke: #A80036; stroke-width: 1.0; stroke-dasharray: 5.0,5.0;" x1="1549.5" x2="1549.5" y1="122.4844" y2="1843.9688"/><line style="stroke: #A80036; stroke-width: 1.0; stroke-dasharray: 5.0,5.0;" x1="1720.5" x2="1720.5" y1="122.4844" y2="1843.9688"/><text fill="#000000" font-family="sans-serif" font-size="14" lengthAdjust="spacingAndGlyphs" textLength="32" x="43" y="119.1826">User</text><ellipse cx="62" cy="49.1875" fill="#FEFECE" filter="url(#f1tmr80zfu85uj)" rx="8" ry="8" style="stroke: #A80036; stroke-width: 2.0;"/><path d="M62,57.1875 L62,84.1875 M49,65.1875 L75,65.1875 M62,84.1875 L49,99.1875 M62,84.1875 L75,99.1875 " fill="none" filter="url(#f1tmr80zfu85uj)" style="stroke: #A80036; stroke-width: 2.0;"/><text fill="#000000" font-family="sans-serif" font-size="14" lengthAdjust="spacingAndGlyphs" textLength="32" x="43" y="1855.9639">User</text><ellipse cx="62" cy="1869.2656" fill="#FEFECE" filter="url(#f1tmr80zfu85uj)" rx="8" ry="8" style="stroke: #A80036; stroke-width: 2.0;"/><path d="M62,1877.2656 L62,1904.2656 M49,1885.2656 L75,1885.2656 M62,1904.2656 L49,1919.2656 M62,1904.2656 L75,1919.2656 " fill="none" filter="url(#f1tmr80zfu85uj)" style="stroke: #A80036; stroke-width: 2.0;"/><rect fill="#FEFECE" filter="url(#f1tmr80zfu85uj)" height="46.5938" style="stroke: #A80036; stroke-width: 1.5;" width="68" x="386.5" y="70.8906"/><text fill="#000000" font-family="sans-serif" font-size="14" lengthAdjust="spacingAndGlyphs" textLength="53" x="394" y="90.8857">main.py</text><text fill="#000000" font-family="sans-serif" font-size="14" lengthAdjust="spacingAndGlyphs" textLength="54" x="393.5" y="107.1826">run_cli()</text><rect fill="#FEFECE" filter="url(#f1tmr80zfu85uj)" height="46.5938" style="stroke: #A80036; stroke-width: 1.5;" width="68" x="386.5" y="1842.9688"/><text fill="#000000" font-family="sans-serif" font-size="14" lengthAdjust="spacingAndGlyphs" textLength="53" x="394" y="1862.9639">main.py</text><text fill="#000000" font-family="sans-serif" font-size="14" lengthAdjust="spacingAndGlyphs" textLength="54" x="393.5" y="1879.2607">run_cli()</text><rect fill="#FEFECE" filter="url(#f1tmr80zfu85uj)" height="46.5938" style="stroke: #A80036; stroke-width: 1.5;" width="179" x="639.5" y="70.8906"/><text fill="#000000" font-family="sans-serif" font-size="14" lengthAdjust="spacingAndGlyphs" textLength="59" x="699.5" y="90.8857">smart.py</text><text fill="#000000" font-family="sans-serif" font-size="14" lengthAdjust="spacingAndGlyphs" textLength="165" x="646.5" y="107.1826">self_awareness_check()</text><rect fill="#FEFECE" filter="url(#f1tmr80zfu85uj)" height="46.5938" style="stroke: #A80036; stroke-width: 1.5;" width="179" x="639.5" y="1842.9688"/><text fill="#000000" font-family="sans-serif" font-size="14" lengthAdjust="spacingAndGlyphs" textLength="59" x="699.5" y="1862.9639">smart.py</text><text fill="#000000" font-family="sans-serif" font-size="14" lengthAdjust="spacingAndGlyphs" textLength="165" x="646.5" y="1879.2607">self_awareness_check()</text><rect fill="#FEFECE" filter="url(#f1tmr80zfu85uj)" height="46.5938" style="stroke: #A80036; stroke-width: 1.5;" width="140" x="832.5" y="70.8906"/><text fill="#000000" font-family="sans-serif" font-size="14" lengthAdjust="spacingAndGlyphs" textLength="77" x="864" y="90.8857">retriever.py</text><text fill="#000000" font-family="sans-serif" font-size="14" lengthAdjust="spacingAndGlyphs" textLength="126" x="839.5" y="107.1826">filter_tools() / run()</text><rect fill="#FEFECE" filter="url(#f1tmr80zfu85uj)" height="46.5938" style="stroke: #A80036; stroke-width: 1.5;" width="140" x="832.5" y="1842.9688"/><text fill="#000000" font-family="sans-serif" font-size="14" lengthAdjust="spacingAndGlyphs" textLength="77" x="864" y="1862.9639">retriever.py</text><text fill="#000000" font-family="sans-serif" font-size="14" lengthAdjust="spacingAndGlyphs" textLength="126" x="839.5" y="1879.2607">filter_tools() / run()</text><rect fill="#FEFECE" filter="url(#f1tmr80zfu85uj)" height="46.5938" style="stroke: #A80036; stroke-width: 1.5;" width="74" x="1101.5" y="70.8906"/><text fill="#000000" font-family="sans-serif" font-size="14" lengthAdjust="spacingAndGlyphs" textLength="60" x="1108.5" y="90.8857">agent.py</text><text fill="#000000" font-family="sans-serif" font-size="14" lengthAdjust="spacingAndGlyphs" textLength="46" x="1115.5" y="107.1826">solve()</text><rect fill="#FEFECE" filter="url(#f1tmr80zfu85uj)" height="46.5938" style="stroke: #A80036; stroke-width: 1.5;" width="74" x="1101.5" y="1842.9688"/><text fill="#000000" font-family="sans-serif" font-size="14" lengthAdjust="spacingAndGlyphs" textLength="60" x="1108.5" y="1862.9639">agent.py</text><text fill="#000000" font-family="sans-serif" font-size="14" lengthAdjust="spacingAndGlyphs" textLength="46" x="1115.5" y="1879.2607">solve()</text><rect fill="#FEFECE" filter="url(#f1tmr80zfu85uj)" height="46.5938" style="stroke: #A80036; stroke-width: 1.5;" width="98" x="1323.5" y="70.8906"/><text fill="#000000" font-family="sans-serif" font-size="14" lengthAdjust="spacingAndGlyphs" textLength="84" x="1330.5" y="90.8857">validation.py</text><text fill="#000000" font-family="sans-serif" font-size="14" lengthAdjust="spacingAndGlyphs" textLength="69" x="1338" y="107.1826">dispatch()</text><rect fill="#FEFECE" filter="url(#f1tmr80zfu85uj)" height="46.5938" style="stroke: #A80036; stroke-width: 1.5;" width="98" x="1323.5" y="1842.9688"/><text fill="#000000" font-family="sans-serif" font-size="14" lengthAdjust="spacingAndGlyphs" textLength="84" x="1330.5" y="1862.9639">validation.py</text><text fill="#000000" font-family="sans-serif" font-size="14" lengthAdjust="spacingAndGlyphs" textLength="69" x="1338" y="1879.2607">dispatch()</text><rect fill="#FEFECE" filter="url(#f1tmr80zfu85uj)" height="62.8906" style="stroke: #A80036; stroke-width: 1.5;" width="225" x="1435.5" y="54.5938"/><text fill="#000000" font-family="sans-serif" font-size="14" lengthAdjust="spacingAndGlyphs" textLength="54" x="1521" y="74.5889">tools.py</text><text fill="#000000" font-family="sans-serif" font-size="14" lengthAdjust="spacingAndGlyphs" textLength="204" x="1446" y="90.8857">calculator / weather / search /</text><text fill="#000000" font-family="sans-serif" font-size="14" lengthAdjust="spacingAndGlyphs" textLength="211" x="1442.5" y="107.1826">text_intelligence (backend API)</text><rect fill="#FEFECE" filter="url(#f1tmr80zfu85uj)" height="62.8906" style="stroke: #A80036; stroke-width: 1.5;" width="225" x="1435.5" y="1842.9688"/><text fill="#000000" font-family="sans-serif" font-size="14" lengthAdjust="spacingAndGlyphs" textLength="54" x="1521" y="1862.9639">tools.py</text><text fill="#000000" font-family="sans-serif" font-size="14" lengthAdjust="spacingAndGlyphs" textLength="204" x="1446" y="1879.2607">calculator / weather / search /</text><text fill="#000000" font-family="sans-serif" font-size="14" lengthAdjust="spacingAndGlyphs" textLength="211" x="1442.5" y="1895.5576">text_intelligence (backend API)</text><rect fill="#FEFECE" filter="url(#f1tmr80zfu85uj)" height="30.2969" style="stroke: #A80036; stroke-width: 1.5;" width="89" x="1674.5" y="87.1875"/><text fill="#000000" font-family="sans-serif" font-size="14" lengthAdjust="spacingAndGlyphs" textLength="75" x="1681.5" y="107.1826">OpenAI API</text><rect fill="#FEFECE" filter="url(#f1tmr80zfu85uj)" height="30.2969" style="stroke: #A80036; stroke-width: 1.5;" width="89" x="1674.5" y="1842.9688"/><text fill="#000000" font-family="sans-serif" font-size="14" lengthAdjust="spacingAndGlyphs" textLength="75" x="1681.5" y="1862.9639">OpenAI API</text><polygon fill="#A80036" points="410.5,150.7813,420.5,154.7813,410.5,158.7813,414.5,154.7813" style="stroke: #A80036; stroke-width: 1.0;"/><line style="stroke: #A80036; stroke-width: 1.0;" x1="62" x2="416.5" y1="154.7813" y2="154.7813"/><text fill="#000000" font-family="sans-serif" font-size="14" lengthAdjust="spacingAndGlyphs" textLength="150" x="69" y="149.4795">start (python main.py)</text><polygon fill="#A80036" points="73,181.0781,63,185.0781,73,189.0781,69,185.0781" style="stroke: #A80036; stroke-width: 1.0;"/><line style="stroke: #A80036; stroke-width: 1.0; stroke-dasharray: 2.0,2.0;" x1="67" x2="421.5" y1="185.0781" y2="185.0781"/><text fill="#000000" font-family="sans-serif" font-size="14" lengthAdjust="spacingAndGlyphs" textLength="115" x="79" y="179.7764">welcome banner</text><path d="M13,200.0781 L92,200.0781 L92,208.0781 L82,218.0781 L13,218.0781 L13,200.0781 " fill="#EEEEEE" style="stroke: #000000; stroke-width: 1.0;"/><rect fill="none" height="1626.8906" style="stroke: #000000; stroke-width: 2.0;" width="1794.5" x="13" y="200.0781"/><text fill="#000000" font-family="sans-serif" font-size="14" font-weight="bold" lengthAdjust="spacingAndGlyphs" textLength="34" x="28" y="214.0732">loop</text><text fill="#000000" font-family="sans-serif" font-size="14" font-weight="bold" lengthAdjust="spacingAndGlyphs" textLength="281" x="107" y="215.0732">[REPL — one question per iteration]</text><polygon fill="#A80036" points="410.5,237.9688,420.5,241.9688,410.5,245.9688,414.5,241.9688" style="stroke: #A80036; stroke-width: 1.0;"/><line style="stroke: #A80036; stroke-width: 1.0;" x1="62" x2="416.5" y1="241.9688" y2="241.9688"/><text fill="#000000" font-family="sans-serif" font-size="14" lengthAdjust="spacingAndGlyphs" textLength="61" x="69" y="236.667">question</text><polygon fill="#A80036" points="719,268.2656,729,272.2656,719,276.2656,723,272.2656" style="stroke: #A80036; stroke-width: 1.0;"/><line style="stroke: #A80036; stroke-width: 1.0;" x1="422.5" x2="725" y1="272.2656" y2="272.2656"/><text fill="#000000" font-family="sans-serif" font-size="14" lengthAdjust="spacingAndGlyphs" textLength="226" x="429.5" y="266.9639">self_awareness_check(question)</text><polygon fill="#A80036" points="1709,314.8594,1719,318.8594,1709,322.8594,1713,318.8594" style="stroke: #A80036; stroke-width: 1.0;"/><line style="stroke: #A80036; stroke-width: 1.0;" x1="731" x2="1715" y1="318.8594" y2="318.8594"/><text fill="#000000" font-family="sans-serif" font-size="14" lengthAdjust="spacingAndGlyphs" textLength="158" x="738" y="297.2607">self-awareness prompt</text><text fill="#000000" font-family="sans-serif" font-size="14" lengthAdjust="spacingAndGlyphs" textLength="87" x="738" y="313.5576">(JSON mode)</text><polygon fill="#A80036" points="742,345.1563,732,349.1563,742,353.1563,738,349.1563" style="stroke: #A80036; stroke-width: 1.0;"/><line style="stroke: #A80036; stroke-width: 1.0; stroke-dasharray: 2.0,2.0;" x1="736" x2="1720" y1="349.1563" y2="349.1563"/><text fill="#000000" font-family="sans-serif" font-size="14" lengthAdjust="spacingAndGlyphs" textLength="209" x="748" y="343.8545">{needs_tool, answer, reason}</text><path d="M23,364.1563 L87,364.1563 L87,372.1563 L77,382.1563 L23,382.1563 L23,364.1563 " fill="#EEEEEE" style="stroke: #000000; stroke-width: 1.0;"/><rect fill="none" height="1455.8125" style="stroke: #000000; stroke-width: 2.0;" width="1774.5" x="23" y="364.1563"/><text fill="#000000" font-family="sans-serif" font-size="14" font-weight="bold" lengthAdjust="spacingAndGlyphs" textLength="19" x="38" y="378.1514">alt</text><text fill="#000000" font-family="sans-serif" font-size="14" font-weight="bold" lengthAdjust="spacingAndGlyphs" textLength="168" x="102" y="379.1514">[exception in SMART]</text><polygon fill="#A80036" points="433.5,402.0469,423.5,406.0469,433.5,410.0469,429.5,406.0469" style="stroke: #A80036; stroke-width: 1.0;"/><line style="stroke: #A80036; stroke-width: 1.0; stroke-dasharray: 2.0,2.0;" x1="427.5" x2="730" y1="406.0469" y2="406.0469"/><text fill="#000000" font-family="sans-serif" font-size="14" lengthAdjust="spacingAndGlyphs" textLength="113" x="439.5" y="400.7451">raises Exception</text><polygon fill="#A80036" points="73,432.3438,63,436.3438,73,440.3438,69,436.3438" style="stroke: #A80036; stroke-width: 1.0;"/><line style="stroke: #A80036; stroke-width: 1.0; stroke-dasharray: 2.0,2.0;" x1="67" x2="421.5" y1="436.3438" y2="436.3438"/><text fill="#000000" font-family="sans-serif" font-size="14" lengthAdjust="spacingAndGlyphs" textLength="233" x="79" y="431.042">"Sorry, something went wrong: ..."</text><line style="stroke: #000000; stroke-width: 1.0; stroke-dasharray: 2.0,2.0;" x1="23" x2="1797.5" y1="445.3438" y2="445.3438"/><text fill="#000000" font-family="sans-serif" font-size="14" font-weight="bold" lengthAdjust="spacingAndGlyphs" textLength="161" x="28" y="458.3389">[needs_tool = False]</text><polygon fill="#A80036" points="433.5,480.9375,423.5,484.9375,433.5,488.9375,429.5,484.9375" style="stroke: #A80036; stroke-width: 1.0;"/><line style="stroke: #A80036; stroke-width: 1.0; stroke-dasharray: 2.0,2.0;" x1="427.5" x2="730" y1="484.9375" y2="484.9375"/><text fill="#000000" font-family="sans-serif" font-size="14" lengthAdjust="spacingAndGlyphs" textLength="229" x="439.5" y="479.6357">{needs_tool: False, answer: "..."}</text><path d="M33,499.9375 L104,499.9375 L104,507.9375 L94,517.9375 L33,517.9375 L33,499.9375 " fill="#EEEEEE" style="stroke: #000000; stroke-width: 1.0;"/><rect fill="none" height="49.8906" style="stroke: #000000; stroke-width: 2.0;" width="435.5" x="33" y="499.9375"/><text fill="#000000" font-family="sans-serif" font-size="14" font-weight="bold" lengthAdjust="spacingAndGlyphs" textLength="26" x="48" y="513.9326">opt</text><text fill="#000000" font-family="sans-serif" font-size="14" font-weight="bold" lengthAdjust="spacingAndGlyphs" textLength="77" x="119" y="514.9326">[verbose]</text><polygon fill="#A80036" points="73,537.8281,63,541.8281,73,545.8281,69,541.8281" style="stroke: #A80036; stroke-width: 1.0;"/><line style="stroke: #A80036; stroke-width: 1.0; stroke-dasharray: 2.0,2.0;" x1="67" x2="421.5" y1="541.8281" y2="541.8281"/><text fill="#000000" font-family="sans-serif" font-size="14" lengthAdjust="spacingAndGlyphs" textLength="292" x="79" y="536.5264">"[SMART] Answering directly — &lt;reason&gt;"</text><polygon fill="#A80036" points="73,575.125,63,579.125,73,583.125,69,579.125" style="stroke: #A80036; stroke-width: 1.0;"/><line style="stroke: #A80036; stroke-width: 1.0; stroke-dasharray: 2.0,2.0;" x1="67" x2="421.5" y1="579.125" y2="579.125"/><text fill="#000000" font-family="sans-serif" font-size="14" lengthAdjust="spacingAndGlyphs" textLength="177" x="79" y="573.8232">"Agent: &lt;direct answer&gt;"</text><line style="stroke: #000000; stroke-width: 1.0; stroke-dasharray: 2.0,2.0;" x1="23" x2="1797.5" y1="588.125" y2="588.125"/><text fill="#000000" font-family="sans-serif" font-size="14" font-weight="bold" lengthAdjust="spacingAndGlyphs" textLength="157" x="28" y="601.1201">[needs_tool = True]</text><polygon fill="#A80036" points="433.5,623.7188,423.5,627.7188,433.5,631.7188,429.5,627.7188" style="stroke: #A80036; stroke-width: 1.0;"/><line style="stroke: #A80036; stroke-width: 1.0; stroke-dasharray: 2.0,2.0;" x1="427.5" x2="730" y1="627.7188" y2="627.7188"/><text fill="#000000" font-family="sans-serif" font-size="14" lengthAdjust="spacingAndGlyphs" textLength="240" x="439.5" y="622.417">{needs_tool: True, answer: None}</text><path d="M33,642.7188 L104,642.7188 L104,650.7188 L94,660.7188 L33,660.7188 L33,642.7188 " fill="#EEEEEE" style="stroke: #000000; stroke-width: 1.0;"/><rect fill="none" height="49.8906" style="stroke: #000000; stroke-width: 2.0;" width="435.5" x="33" y="642.7188"/><text fill="#000000" font-family="sans-serif" font-size="14" font-weight="bold" lengthAdjust="spacingAndGlyphs" textLength="26" x="48" y="656.7139">opt</text><text fill="#000000" font-family="sans-serif" font-size="14" font-weight="bold" lengthAdjust="spacingAndGlyphs" textLength="77" x="119" y="657.7139">[verbose]</text><polygon fill="#A80036" points="73,680.6094,63,684.6094,73,688.6094,69,684.6094" style="stroke: #A80036; stroke-width: 1.0;"/><line style="stroke: #A80036; stroke-width: 1.0; stroke-dasharray: 2.0,2.0;" x1="67" x2="421.5" y1="684.6094" y2="684.6094"/><text fill="#000000" font-family="sans-serif" font-size="14" lengthAdjust="spacingAndGlyphs" textLength="259" x="79" y="679.3076">"[SMART] Tool required — &lt;reason&gt;"</text><polygon fill="#A80036" points="892.5,717.9063,902.5,721.9063,892.5,725.9063,896.5,721.9063" style="stroke: #A80036; stroke-width: 1.0;"/><line style="stroke: #A80036; stroke-width: 1.0;" x1="422.5" x2="898.5" y1="721.9063" y2="721.9063"/><text fill="#000000" font-family="sans-serif" font-size="14" lengthAdjust="spacingAndGlyphs" textLength="94" x="429.5" y="716.6045">run(question)</text><polygon fill="#A80036" points="1709,764.5,1719,768.5,1709,772.5,1713,768.5" style="stroke: #A80036; stroke-width: 1.0;"/><line style="stroke: #A80036; stroke-width: 1.0;" x1="904.5" x2="1715" y1="768.5" y2="768.5"/><text fill="#000000" font-family="sans-serif" font-size="14" lengthAdjust="spacingAndGlyphs" textLength="113" x="911.5" y="746.9014">tool filter prompt</text><text fill="#000000" font-family="sans-serif" font-size="14" lengthAdjust="spacingAndGlyphs" textLength="87" x="911.5" y="763.1982">(JSON mode)</text><polygon fill="#A80036" points="915.5,794.7969,905.5,798.7969,915.5,802.7969,911.5,798.7969" style="stroke: #A80036; stroke-width: 1.0;"/><line style="stroke: #A80036; stroke-width: 1.0; stroke-dasharray: 2.0,2.0;" x1="909.5" x2="1720" y1="798.7969" y2="798.7969"/><text fill="#000000" font-family="sans-serif" font-size="14" lengthAdjust="spacingAndGlyphs" textLength="134" x="921.5" y="793.4951">{category, reason}</text><line style="stroke: #A80036; stroke-width: 1.0;" x1="904.5" x2="946.5" y1="845.3906" y2="845.3906"/><line style="stroke: #A80036; stroke-width: 1.0;" x1="946.5" x2="946.5" y1="845.3906" y2="858.3906"/><line style="stroke: #A80036; stroke-width: 1.0;" x1="905.5" x2="946.5" y1="858.3906" y2="858.3906"/><polygon fill="#A80036" points="915.5,854.3906,905.5,858.3906,915.5,862.3906,911.5,858.3906" style="stroke: #A80036; stroke-width: 1.0;"/><text fill="#000000" font-family="sans-serif" font-size="14" lengthAdjust="spacingAndGlyphs" textLength="124" x="911.5" y="823.792">select tool subset</text><text fill="#000000" font-family="sans-serif" font-size="14" lengthAdjust="spacingAndGlyphs" textLength="222" x="911.5" y="840.0889">(or ALL_TOOLS if unknown/error)</text><path d="M366.5,873.3906 L445.5,873.3906 L445.5,881.3906 L435.5,891.3906 L366.5,891.3906 L366.5,873.3906 " fill="#EEEEEE" style="stroke: #000000; stroke-width: 1.0;"/><rect fill="none" height="672.3125" style="stroke: #000000; stroke-width: 2.0;" width="1421" x="366.5" y="873.3906"/><text fill="#000000" font-family="sans-serif" font-size="14" font-weight="bold" lengthAdjust="spacingAndGlyphs" textLength="34" x="381.5" y="887.3857">loop</text><text fill="#000000" font-family="sans-serif" font-size="14" font-weight="bold" lengthAdjust="spacingAndGlyphs" textLength="351" x="460.5" y="888.3857">[self-reflection retry (max_retries attempts)]</text><polygon fill="#A80036" points="1128.5,911.2813,1138.5,915.2813,1128.5,919.2813,1132.5,915.2813" style="stroke: #A80036; stroke-width: 1.0;"/><line style="stroke: #A80036; stroke-width: 1.0;" x1="904.5" x2="1134.5" y1="915.2813" y2="915.2813"/><text fill="#000000" font-family="sans-serif" font-size="14" lengthAdjust="spacingAndGlyphs" textLength="149" x="911.5" y="909.9795">solve(question, tools)</text><path d="M812.5,930.2813 L891.5,930.2813 L891.5,938.2813 L881.5,948.2813 L812.5,948.2813 L812.5,930.2813 " fill="#EEEEEE" style="stroke: #000000; stroke-width: 1.0;"/><rect fill="none" height="436.3438" style="stroke: #000000; stroke-width: 2.0;" width="965" x="812.5" y="930.2813"/><text fill="#000000" font-family="sans-serif" font-size="14" font-weight="bold" lengthAdjust="spacingAndGlyphs" textLength="34" x="827.5" y="944.2764">loop</text><text fill="#000000" font-family="sans-serif" font-size="14" font-weight="bold" lengthAdjust="spacingAndGlyphs" textLength="281" x="906.5" y="945.2764">[agent solver loop (max_iterations)]</text><polygon fill="#A80036" points="1709,968.1719,1719,972.1719,1709,976.1719,1713,972.1719" style="stroke: #A80036; stroke-width: 1.0;"/><line style="stroke: #A80036; stroke-width: 1.0;" x1="1140.5" x2="1715" y1="972.1719" y2="972.1719"/><text fill="#000000" font-family="sans-serif" font-size="14" lengthAdjust="spacingAndGlyphs" textLength="236" x="1147.5" y="966.8701">messages + filtered tool schemas</text><polygon fill="#A80036" points="1151.5,998.4688,1141.5,1002.4688,1151.5,1006.4688,1147.5,1002.4688" style="stroke: #A80036; stroke-width: 1.0;"/><line style="stroke: #A80036; stroke-width: 1.0; stroke-dasharray: 2.0,2.0;" x1="1145.5" x2="1720" y1="1002.4688" y2="1002.4688"/><text fill="#000000" font-family="sans-serif" font-size="14" lengthAdjust="spacingAndGlyphs" textLength="66" x="1157.5" y="997.167">response</text><path d="M822.5,1017.4688 L886.5,1017.4688 L886.5,1025.4688 L876.5,1035.4688 L822.5,1035.4688 L822.5,1017.4688 " fill="#EEEEEE" style="stroke: #000000; stroke-width: 1.0;"/><rect fill="none" height="342.1563" style="stroke: #000000; stroke-width: 2.0;" width="862" x="822.5" y="1017.4688"/><text fill="#000000" font-family="sans-serif" font-size="14" font-weight="bold" lengthAdjust="spacingAndGlyphs" textLength="19" x="837.5" y="1031.4639">alt</text><text fill="#000000" font-family="sans-serif" font-size="14" font-weight="bold" lengthAdjust="spacingAndGlyphs" textLength="230" x="901.5" y="1032.4639">[no tool_calls — final answer]</text><polygon fill="#A80036" points="915.5,1055.3594,905.5,1059.3594,915.5,1063.3594,911.5,1059.3594" style="stroke: #A80036; stroke-width: 1.0;"/><line style="stroke: #A80036; stroke-width: 1.0; stroke-dasharray: 2.0,2.0;" x1="909.5" x2="1139.5" y1="1059.3594" y2="1059.3594"/><text fill="#000000" font-family="sans-serif" font-size="14" lengthAdjust="spacingAndGlyphs" textLength="93" x="921.5" y="1054.0576">answer string</text><line style="stroke: #000000; stroke-width: 1.0; stroke-dasharray: 2.0,2.0;" x1="822.5" x2="1684.5" y1="1068.3594" y2="1068.3594"/><text fill="#000000" font-family="sans-serif" font-size="14" font-weight="bold" lengthAdjust="spacingAndGlyphs" textLength="298" x="827.5" y="1081.3545">[tool_calls present (parallel, Phase 8)]</text><path d="M1091.5,1092.6563 L1170.5,1092.6563 L1170.5,1100.6563 L1160.5,1110.6563 L1091.5,1110.6563 L1091.5,1092.6563 " fill="#EEEEEE" style="stroke: #000000; stroke-width: 1.0;"/><rect fill="none" height="200.375" style="stroke: #000000; stroke-width: 2.0;" width="583" x="1091.5" y="1092.6563"/><text fill="#000000" font-family="sans-serif" font-size="14" font-weight="bold" lengthAdjust="spacingAndGlyphs" textLength="34" x="1106.5" y="1106.6514">loop</text><text fill="#000000" font-family="sans-serif" font-size="14" font-weight="bold" lengthAdjust="spacingAndGlyphs" textLength="322" x="1185.5" y="1107.6514">[for each tool_call in response.tool_calls]</text><polygon fill="#A80036" points="1362.5,1130.5469,1372.5,1134.5469,1362.5,1138.5469,1366.5,1134.5469" style="stroke: #A80036; stroke-width: 1.0;"/><line style="stroke: #A80036; stroke-width: 1.0;" x1="1140.5" x2="1368.5" y1="1134.5469" y2="1134.5469"/><text fill="#000000" font-family="sans-serif" font-size="14" lengthAdjust="spacingAndGlyphs" textLength="210" x="1147.5" y="1129.2451">dispatch(tool_name, raw_args)</text><line style="stroke: #A80036; stroke-width: 1.0;" x1="1374.5" x2="1416.5" y1="1181.1406" y2="1181.1406"/><line style="stroke: #A80036; stroke-width: 1.0;" x1="1416.5" x2="1416.5" y1="1181.1406" y2="1194.1406"/><line style="stroke: #A80036; stroke-width: 1.0;" x1="1375.5" x2="1416.5" y1="1194.1406" y2="1194.1406"/><polygon fill="#A80036" points="1385.5,1190.1406,1375.5,1194.1406,1385.5,1198.1406,1381.5,1194.1406" style="stroke: #A80036; stroke-width: 1.0;"/><text fill="#000000" font-family="sans-serif" font-size="14" lengthAdjust="spacingAndGlyphs" textLength="86" x="1381.5" y="1159.542">validate args</text><text fill="#000000" font-family="sans-serif" font-size="14" lengthAdjust="spacingAndGlyphs" textLength="132" x="1381.5" y="1175.8389">(Pydantic, Phase 6)</text><polygon fill="#A80036" points="1538,1220.4375,1548,1224.4375,1538,1228.4375,1542,1224.4375" style="stroke: #A80036; stroke-width: 1.0;"/><line style="stroke: #A80036; stroke-width: 1.0;" x1="1374.5" x2="1544" y1="1224.4375" y2="1224.4375"/><text fill="#000000" font-family="sans-serif" font-size="14" lengthAdjust="spacingAndGlyphs" textLength="86" x="1381.5" y="1219.1357">execute tool</text><polygon fill="#A80036" points="1385.5,1250.7344,1375.5,1254.7344,1385.5,1258.7344,1381.5,1254.7344" style="stroke: #A80036; stroke-width: 1.0;"/><line style="stroke: #A80036; stroke-width: 1.0; stroke-dasharray: 2.0,2.0;" x1="1379.5" x2="1549" y1="1254.7344" y2="1254.7344"/><text fill="#000000" font-family="sans-serif" font-size="14" lengthAdjust="spacingAndGlyphs" textLength="68" x="1391.5" y="1249.4326">result dict</text><polygon fill="#A80036" points="1151.5,1281.0313,1141.5,1285.0313,1151.5,1289.0313,1147.5,1285.0313" style="stroke: #A80036; stroke-width: 1.0;"/><line style="stroke: #A80036; stroke-width: 1.0; stroke-dasharray: 2.0,2.0;" x1="1145.5" x2="1373.5" y1="1285.0313" y2="1285.0313"/><text fill="#000000" font-family="sans-serif" font-size="14" lengthAdjust="spacingAndGlyphs" textLength="68" x="1157.5" y="1279.7295">result dict</text><line style="stroke: #A80036; stroke-width: 1.0;" x1="1140.5" x2="1182.5" y1="1338.625" y2="1338.625"/><line style="stroke: #A80036; stroke-width: 1.0;" x1="1182.5" x2="1182.5" y1="1338.625" y2="1351.625"/><line style="stroke: #A80036; stroke-width: 1.0;" x1="1141.5" x2="1182.5" y1="1351.625" y2="1351.625"/><polygon fill="#A80036" points="1151.5,1347.625,1141.5,1351.625,1151.5,1355.625,1147.5,1351.625" style="stroke: #A80036; stroke-width: 1.0;"/><text fill="#000000" font-family="sans-serif" font-size="14" lengthAdjust="spacingAndGlyphs" textLength="152" x="1147.5" y="1317.0264">append all tool results</text><text fill="#000000" font-family="sans-serif" font-size="14" lengthAdjust="spacingAndGlyphs" textLength="90" x="1147.5" y="1333.3232">to messages</text><path d="M376.5,1380.625 L440.5,1380.625 L440.5,1388.625 L430.5,1398.625 L376.5,1398.625 L376.5,1380.625 " fill="#EEEEEE" style="stroke: #000000; stroke-width: 1.0;"/><rect fill="none" height="158.0781" style="stroke: #000000; stroke-width: 2.0;" width="813" x="376.5" y="1380.625"/><text fill="#000000" font-family="sans-serif" font-size="14" font-weight="bold" lengthAdjust="spacingAndGlyphs" textLength="19" x="391.5" y="1394.6201">alt</text><text fill="#000000" font-family="sans-serif" font-size="14" font-weight="bold" lengthAdjust="spacingAndGlyphs" textLength="196" x="455.5" y="1395.6201">[agent returned answer]</text><polygon fill="#A80036" points="915.5,1418.5156,905.5,1422.5156,915.5,1426.5156,911.5,1422.5156" style="stroke: #A80036; stroke-width: 1.0;"/><line style="stroke: #A80036; stroke-width: 1.0; stroke-dasharray: 2.0,2.0;" x1="909.5" x2="1139.5" y1="1422.5156" y2="1422.5156"/><text fill="#000000" font-family="sans-serif" font-size="14" lengthAdjust="spacingAndGlyphs" textLength="93" x="921.5" y="1417.2139">answer string</text><polygon fill="#A80036" points="433.5,1448.8125,423.5,1452.8125,433.5,1456.8125,429.5,1452.8125" style="stroke: #A80036; stroke-width: 1.0;"/><line style="stroke: #A80036; stroke-width: 1.0; stroke-dasharray: 2.0,2.0;" x1="427.5" x2="903.5" y1="1452.8125" y2="1452.8125"/><text fill="#000000" font-family="sans-serif" font-size="14" lengthAdjust="spacingAndGlyphs" textLength="93" x="439.5" y="1447.5107">answer string</text><line style="stroke: #000000; stroke-width: 1.0; stroke-dasharray: 2.0,2.0;" x1="376.5" x2="1189.5" y1="1461.8125" y2="1461.8125"/><text fill="#000000" font-family="sans-serif" font-size="14" font-weight="bold" lengthAdjust="spacingAndGlyphs" textLength="332" x="381.5" y="1474.8076">[agent returned None (max iterations hit)]</text><line style="stroke: #A80036; stroke-width: 1.0;" x1="904.5" x2="946.5" y1="1517.7031" y2="1517.7031"/><line style="stroke: #A80036; stroke-width: 1.0;" x1="946.5" x2="946.5" y1="1517.7031" y2="1530.7031"/><line style="stroke: #A80036; stroke-width: 1.0;" x1="905.5" x2="946.5" y1="1530.7031" y2="1530.7031"/><polygon fill="#A80036" points="915.5,1526.7031,905.5,1530.7031,915.5,1534.7031,911.5,1530.7031" style="stroke: #A80036; stroke-width: 1.0;"/><text fill="#000000" font-family="sans-serif" font-size="14" lengthAdjust="spacingAndGlyphs" textLength="176" x="911.5" y="1496.1045">widen tools = ALL_TOOLS</text><text fill="#000000" font-family="sans-serif" font-size="14" lengthAdjust="spacingAndGlyphs" textLength="167" x="911.5" y="1512.4014">(self-reflection, Phase 9)</text><path d="M33,1559.7031 L97,1559.7031 L97,1567.7031 L87,1577.7031 L33,1577.7031 L33,1559.7031 " fill="#EEEEEE" style="stroke: #000000; stroke-width: 1.0;"/><rect fill="none" height="159.0781" style="stroke: #000000; stroke-width: 2.0;" width="953.5" x="33" y="1559.7031"/><text fill="#000000" font-family="sans-serif" font-size="14" font-weight="bold" lengthAdjust="spacingAndGlyphs" textLength="19" x="48" y="1573.6982">alt</text><text fill="#000000" font-family="sans-serif" font-size="14" font-weight="bold" lengthAdjust="spacingAndGlyphs" textLength="233" x="112" y="1574.6982">[answer found within retries]</text><polygon fill="#A80036" points="433.5,1597.5938,423.5,1601.5938,433.5,1605.5938,429.5,1601.5938" style="stroke: #A80036; stroke-width: 1.0;"/><line style="stroke: #A80036; stroke-width: 1.0; stroke-dasharray: 2.0,2.0;" x1="427.5" x2="903.5" y1="1601.5938" y2="1601.5938"/><text fill="#000000" font-family="sans-serif" font-size="14" lengthAdjust="spacingAndGlyphs" textLength="81" x="439.5" y="1596.292">final answer</text><polygon fill="#A80036" points="73,1627.8906,63,1631.8906,73,1635.8906,69,1631.8906" style="stroke: #A80036; stroke-width: 1.0;"/><line style="stroke: #A80036; stroke-width: 1.0; stroke-dasharray: 2.0,2.0;" x1="67" x2="421.5" y1="1631.8906" y2="1631.8906"/><text fill="#000000" font-family="sans-serif" font-size="14" lengthAdjust="spacingAndGlyphs" textLength="165" x="79" y="1626.5889">"Agent: &lt;final answer&gt;"</text><line style="stroke: #000000; stroke-width: 1.0; stroke-dasharray: 2.0,2.0;" x1="33" x2="986.5" y1="1640.8906" y2="1640.8906"/><text fill="#000000" font-family="sans-serif" font-size="14" font-weight="bold" lengthAdjust="spacingAndGlyphs" textLength="175" x="38" y="1653.8857">[all retries exhausted]</text><polygon fill="#A80036" points="433.5,1676.4844,423.5,1680.4844,433.5,1684.4844,429.5,1680.4844" style="stroke: #A80036; stroke-width: 1.0;"/><line style="stroke: #A80036; stroke-width: 1.0; stroke-dasharray: 2.0,2.0;" x1="427.5" x2="903.5" y1="1680.4844" y2="1680.4844"/><text fill="#000000" font-family="sans-serif" font-size="14" lengthAdjust="spacingAndGlyphs" textLength="119" x="439.5" y="1675.1826">fallback message</text><polygon fill="#A80036" points="73,1706.7813,63,1710.7813,73,1714.7813,69,1710.7813" style="stroke: #A80036; stroke-width: 1.0;"/><line style="stroke: #A80036; stroke-width: 1.0; stroke-dasharray: 2.0,2.0;" x1="67" x2="421.5" y1="1710.7813" y2="1710.7813"/><text fill="#000000" font-family="sans-serif" font-size="14" lengthAdjust="spacingAndGlyphs" textLength="279" x="79" y="1705.4795">"Agent: I was unable to find an answer..."</text><path d="M33,1732.7813 L97,1732.7813 L97,1740.7813 L87,1750.7813 L33,1750.7813 L33,1732.7813 " fill="#EEEEEE" style="stroke: #000000; stroke-width: 1.0;"/><rect fill="none" height="80.1875" style="stroke: #000000; stroke-width: 2.0;" width="953.5" x="33" y="1732.7813"/><text fill="#000000" font-family="sans-serif" font-size="14" font-weight="bold" lengthAdjust="spacingAndGlyphs" textLength="19" x="48" y="1746.7764">alt</text><text fill="#000000" font-family="sans-serif" font-size="14" font-weight="bold" lengthAdjust="spacingAndGlyphs" textLength="184" x="112" y="1747.7764">[exception in retriever]</text><polygon fill="#A80036" points="433.5,1770.6719,423.5,1774.6719,433.5,1778.6719,429.5,1774.6719" style="stroke: #A80036; stroke-width: 1.0;"/><line style="stroke: #A80036; stroke-width: 1.0; stroke-dasharray: 2.0,2.0;" x1="427.5" x2="903.5" y1="1774.6719" y2="1774.6719"/><text fill="#000000" font-family="sans-serif" font-size="14" lengthAdjust="spacingAndGlyphs" textLength="113" x="439.5" y="1769.3701">raises Exception</text><polygon fill="#A80036" points="73,1800.9688,63,1804.9688,73,1808.9688,69,1804.9688" style="stroke: #A80036; stroke-width: 1.0;"/><line style="stroke: #A80036; stroke-width: 1.0; stroke-dasharray: 2.0,2.0;" x1="67" x2="421.5" y1="1804.9688" y2="1804.9688"/><text fill="#000000" font-family="sans-serif" font-size="14" lengthAdjust="spacingAndGlyphs" textLength="283" x="79" y="1799.667">"Agent: Sorry, something went wrong: ..."</text><!--MD5=[fb5491367e03d9a047c399f72b23bbee]
@startuml full-pipeline
title Smart AnyTool Agent - Full Pipeline Sequence
skinparam defaultFontSize 14

actor User

box "CLI Layer (Phase 10)" #LightYellow
  participant "main.py\nrun_cli()" as CLI
end box

box "SMART Layer (Phase 4)" #LightBlue
  participant "smart.py\nself_awareness_check()" as SMART
end box

box "AnyTool Layer (Phases 5-9)" #LightGreen
  participant "retriever.py\nfilter_tools() / run()" as Retriever
  participant "agent.py\nsolve()" as Agent
end box

box "Tool Layer (Phases 1-3, 6)" #LightPink
  participant "validation.py\ndispatch()" as Validation
  participant "tools.py\ncalculator / weather / search /\ntext_intelligence (backend API)" as Tools
end box

participant "OpenAI API" as OpenAI

User -> CLI : start (python main.py)
CLI - -> User : welcome banner

loop REPL — one question per iteration

  User -> CLI : question

  CLI -> SMART : self_awareness_check(question)
  SMART -> OpenAI : self-awareness prompt\n(JSON mode)
  OpenAI - -> SMART : {needs_tool, answer, reason}

  alt exception in SMART
    SMART - -> CLI : raises Exception
    CLI - -> User : "Sorry, something went wrong: ..."

  else needs_tool = False
    SMART - -> CLI : {needs_tool: False, answer: "..."}
    opt verbose
      CLI - -> User : "[SMART] Answering directly — <reason>"
    end
    CLI - -> User : "Agent: <direct answer>"

  else needs_tool = True
    SMART - -> CLI : {needs_tool: True, answer: None}
    opt verbose
      CLI - -> User : "[SMART] Tool required — <reason>"
    end

    CLI -> Retriever : run(question)

    Retriever -> OpenAI : tool filter prompt\n(JSON mode)
    OpenAI - -> Retriever : {category, reason}
    Retriever -> Retriever : select tool subset\n(or ALL_TOOLS if unknown/error)

    loop self-reflection retry (max_retries attempts)

      Retriever -> Agent : solve(question, tools)

      loop agent solver loop (max_iterations)

        Agent -> OpenAI : messages + filtered tool schemas
        OpenAI - -> Agent : response

        alt no tool_calls — final answer
          Agent - -> Retriever : answer string
        else tool_calls present (parallel, Phase 8)
          loop for each tool_call in response.tool_calls
            Agent -> Validation : dispatch(tool_name, raw_args)
            Validation -> Validation : validate args\n(Pydantic, Phase 6)
            Validation -> Tools : execute tool
            Tools - -> Validation : result dict
            Validation - -> Agent : result dict
          end
          Agent -> Agent : append all tool results\nto messages
        end

      end

      alt agent returned answer
        Agent - -> Retriever : answer string
        Retriever - -> CLI : answer string
      else agent returned None (max iterations hit)
        Retriever -> Retriever : widen tools = ALL_TOOLS\n(self-reflection, Phase 9)
      end

    end

    alt answer found within retries
      Retriever - -> CLI : final answer
      CLI - -> User : "Agent: <final answer>"
    else all retries exhausted
      Retriever - -> CLI : fallback message
      CLI - -> User : "Agent: I was unable to find an answer..."
    end

    alt exception in retriever
      Retriever - -> CLI : raises Exception
      CLI - -> User : "Agent: Sorry, something went wrong: ..."
    end

  end

end

@enduml

PlantUML version 1.2020.02(Sun Mar 01 10:22:07 UTC 2020)
(GPL source distribution)
Java Runtime: OpenJDK Runtime Environment
JVM: OpenJDK 64-Bit Server VM
Java Version: 17.0.20.1+1
Operating System: Linux
Default Encoding: UTF-8
Language: en
Country: null
--></g></svg>