<?xml version="1.0" encoding="UTF-8" standalone="no"?><svg xmlns="http://www.w3.org/2000/svg" xmlns:xlink="http://www.w3.org/1999/xlink" contentScriptType="application/ecmascript" contentStyleType="text/css" height="496px" preserveAspectRatio="none" style="width:633px;height:496px;" version="1.1" viewBox="0 0 633 496" width="633px" zoomAndPan="magnify"><defs><filter height="300%" id="flzxok5hx7adn" width="300%" x="-1" y="-1"><feGaussianBlur result="blurOut" stdDeviation="2.0"/><feColorMatrix in="blurOut" result="blurOut2" type="matrix" values="0 0 0 0 0 0 0 0 0 0 0 0 0 0 0 0 0 0 .4 0"/><feOffset dx="4.0" dy="4.0" in="blurOut2" result="blurOut3"/><feBlend in="SourceGraphic" in2="blurOut3" mode="normal"/></filter></defs><g><text fill="#000000" font-family="sans-serif" font-size="18" lengthAdjust="spacingAndGlyphs" textLength="157" x="237" y="26.708">Parallel Tool Calls</text><ellipse cx="233" cy="40.9531" fill="#000000" filter="url(#flzxok5hx7adn)" rx="10" ry="10" style="stroke: none; stroke-width: 1.0;"/><rect fill="#FEFECE" filter="url(#flzxok5hx7adn)" height="47.9375" rx="12.5" ry="12.5" style="stroke: #A80036; stroke-width: 1.5;" width="175" x="145.5" y="70.9531"/><text fill="#000000" font-family="sans-serif" font-size="12" lengthAdjust="spacingAndGlyphs" textLength="135" x="155.5" y="92.0918">LLM returns response</text><text fill="#000000" font-family="sans-serif" font-size="12" lengthAdjust="spacingAndGlyphs" textLength="155" x="155.5" y="106.0605">with tool_calls = [A, B, C]</text><rect fill="#FEFECE" filter="url(#flzxok5hx7adn)" height="47.9375" rx="12.5" ry="12.5" style="stroke: #A80036; stroke-width: 1.5;" width="210" x="128" y="138.8906"/><text fill="#000000" font-family="sans-serif" font-size="12" lengthAdjust="spacingAndGlyphs" textLength="171" x="138" y="160.0293">Append assistant message</text><text fill="#000000" font-family="sans-serif" font-size="12" lengthAdjust="spacingAndGlyphs" textLength="190" x="138" y="173.998">with all tool_calls to messages</text><path d="M466,256.0156 L466,326.5469 L621,326.5469 L621,266.0156 L611,256.0156 L466,256.0156 " fill="#FBFB77" filter="url(#flzxok5hx7adn)" style="stroke: #A80036; stroke-width: 1.0;"/><path d="M611,256.0156 L611,266.0156 L621,266.0156 L611,256.0156 " fill="#FBFB77" style="stroke: #A80036; stroke-width: 1.0;"/><text fill="#000000" font-family="sans-serif" font-size="13" lengthAdjust="spacingAndGlyphs" textLength="130" x="472" y="273.0825">All results appended</text><text fill="#000000" font-family="sans-serif" font-size="13" lengthAdjust="spacingAndGlyphs" textLength="131" x="472" y="288.2153">before next LLM call.</text><text fill="#000000" font-family="sans-serif" font-size="13" lengthAdjust="spacingAndGlyphs" textLength="108" x="472" y="303.3481">Partial failure still</text><text fill="#000000" font-family="sans-serif" font-size="13" lengthAdjust="spacingAndGlyphs" textLength="134" x="472" y="318.481">appends error result.</text><rect fill="#000000" filter="url(#flzxok5hx7adn)" height="6" rx="2.5" ry="2.5" style="stroke: #000000; stroke-width: 1.0;" width="446" x="10" y="206.8281"/><rect fill="#FEFECE" filter="url(#flzxok5hx7adn)" height="33.9688" rx="12.5" ry="12.5" style="stroke: #A80036; stroke-width: 1.5;" width="119" x="23.5" y="232.8281"/><text fill="#000000" font-family="sans-serif" font-size="12" lengthAdjust="spacingAndGlyphs" textLength="99" x="33.5" y="253.9668">dispatch(call_A)</text><rect fill="#FEFECE" filter="url(#flzxok5hx7adn)" height="47.9375" rx="12.5" ry="12.5" style="stroke: #A80036; stroke-width: 1.5;" width="122" x="22" y="301.7969"/><text fill="#000000" font-family="sans-serif" font-size="12" lengthAdjust="spacingAndGlyphs" textLength="102" x="32" y="322.9355">Append result_A</text><text fill="#000000" font-family="sans-serif" font-size="12" lengthAdjust="spacingAndGlyphs" textLength="81" x="32" y="336.9043">to messages</text><rect fill="#FEFECE" filter="url(#flzxok5hx7adn)" height="33.9688" rx="12.5" ry="12.5" style="stroke: #A80036; stroke-width: 1.5;" width="119" x="173.5" y="232.8281"/><text fill="#000000" font-family="sans-serif" font-size="12" lengthAdjust="spacingAndGlyphs" textLength="99" x="183.5" y="253.9668">dispatch(call_B)</text><rect fill="#FEFECE" filter="url(#flzxok5hx7adn)" height="47.9375" rx="12.5" ry="12.5" style="stroke: #A80036; stroke-width: 1.5;" width="122" x="172" y="301.7969"/><text fill="#000000" font-family="sans-serif" font-size="12" lengthAdjust="spacingAndGlyphs" textLength="102" x="182" y="322.9355">Append result_B</text><text fill="#000000" font-family="sans-serif" font-size="12" lengthAdjust="spacingAndGlyphs" textLength="81" x="182" y="336.9043">to messages</text><rect fill="#FEFECE" filter="url(#flzxok5hx7adn)" height="33.9688" rx="12.5" ry="12.5" style="stroke: #A80036; stroke-width: 1.5;" width="119" x="323.5" y="232.8281"/><text fill="#000000" font-family="sans-serif" font-size="12" lengthAdjust="spacingAndGlyphs" textLength="99" x="333.5" y="253.9668">dispatch(call_C)</text><rect fill="#FEFECE" filter="url(#flzxok5hx7adn)" height="47.9375" rx="12.5" ry="12.5" style="stroke: #A80036; stroke-width: 1.5;" width="122" x="322" y="301.7969"/><text fill="#000000" font-family="sans-serif" font-size="12" lengthAdjust="spacingAndGlyphs" textLength="102" x="332" y="322.9355">Append result_C</text><text fill="#000000" font-family="sans-serif" font-size="12" lengthAdjust="spacingAndGlyphs" textLength="81" x="332" y="336.9043">to messages</text><rect fill="#000000" filter="url(#flzxok5hx7adn)" height="6" rx="2.5" ry="2.5" style="stroke: #000000; stroke-width: 1.0;" width="446" x="10" y="369.7344"/><rect fill="#FEFECE" filter="url(#flzxok5hx7adn)" height="47.9375" rx="12.5" ry="12.5" style="stroke: #A80036; stroke-width: 1.5;" width="222" x="122" y="395.7344"/><text fill="#000000" font-family="sans-serif" font-size="12" lengthAdjust="spacingAndGlyphs" textLength="202" x="132" y="416.873">Call LLM with updated messages</text><text fill="#000000" font-family="sans-serif" font-size="12" lengthAdjust="spacingAndGlyphs" textLength="137" x="132" y="430.8418">(all results in context)</text><ellipse cx="233" cy="474.6719" fill="#FFFFFF" filter="url(#flzxok5hx7adn)" rx="11" ry="11" style="stroke: #000000; stroke-width: 1.0;"/><ellipse cx="233" cy="474.6719" fill="#000000" rx="6" ry="6" style="stroke: #7F7F7F; stroke-width: 1.0;"/><line style="stroke: #A80036; stroke-width: 1.5;" x1="233" x2="233" y1="50.9531" y2="70.9531"/><polygon fill="#A80036" points="229,60.9531,233,70.9531,237,60.9531,233,64.9531" style="stroke: #A80036; stroke-width: 1.0;"/><line style="stroke: #A80036; stroke-width: 1.5;" x1="233" x2="233" y1="118.8906" y2="138.8906"/><polygon fill="#A80036" points="229,128.8906,233,138.8906,237,128.8906,233,132.8906" style="stroke: #A80036; stroke-width: 1.0;"/><line style="stroke: #A80036; stroke-width: 1.5;" x1="83" x2="83" y1="266.7969" y2="301.7969"/><polygon fill="#A80036" points="79,291.7969,83,301.7969,87,291.7969,83,295.7969" style="stroke: #A80036; stroke-width: 1.0;"/><line style="stroke: #A80036; stroke-width: 1.5;" x1="233" x2="233" y1="266.7969" y2="301.7969"/><polygon fill="#A80036" points="229,291.7969,233,301.7969,237,291.7969,233,295.7969" style="stroke: #A80036; stroke-width: 1.0;"/><line style="stroke: #A80036; stroke-width: 1.5;" x1="383" x2="383" y1="266.7969" y2="301.7969"/><polygon fill="#A80036" points="379,291.7969,383,301.7969,387,291.7969,383,295.7969" style="stroke: #A80036; stroke-width: 1.0;"/><line style="stroke: #A80036; stroke-width: 1.5;" x1="83" x2="83" y1="212.8281" y2="232.8281"/><polygon fill="#A80036" points="79,222.8281,83,232.8281,87,222.8281,83,226.8281" style="stroke: #A80036; stroke-width: 1.0;"/><line style="stroke: #A80036; stroke-width: 1.5;" x1="233" x2="233" y1="212.8281" y2="232.8281"/><polygon fill="#A80036" points="229,222.8281,233,232.8281,237,222.8281,233,226.8281" style="stroke: #A80036; stroke-width: 1.0;"/><line style="stroke: #A80036; stroke-width: 1.5;" x1="383" x2="383" y1="212.8281" y2="232.8281"/><polygon fill="#A80036" points="379,222.8281,383,232.8281,387,222.8281,383,226.8281" style="stroke: #A80036; stroke-width: 1.0;"/><line style="stroke: #A80036; stroke-width: 1.5;" x1="83" x2="83" y1="349.7344" y2="369.7344"/><polygon fill="#A80036" points="79,359.7344,83,369.7344,87,359.7344,83,363.7344" style="stroke: #A80036; stroke-width: 1.0;"/><line style="stroke: #A80036; stroke-width: 1.5;" x1="233" x2="233" y1="349.7344" y2="369.7344"/><polygon fill="#A80036" points="229,359.7344,233,369.7344,237,359.7344,233,363.7344" style="stroke: #A80036; stroke-width: 1.0;"/><line style="stroke: #A80036; stroke-width: 1.5;" x1="383" x2="383" y1="349.7344" y2="369.7344"/><polygon fill="#A80036" points="379,359.7344,383,369.7344,387,359.7344,383,363.7344" style="stroke: #A80036; stroke-width: 1.0;"/><line style="stroke: #A80036; stroke-width: 1.5;" x1="233" x2="233" y1="186.8281" y2="206.8281"/><polygon fill="#A80036" points="229,196.8281,233,206.8281,237,196.8281,233,200.8281" style="stroke: #A80036; stroke-width: 1.0;"/><line style="stroke: #A80036; stroke-width: 1.5;" x1="233" x2="233" y1="375.7344" y2="395.7344"/><polygon fill="#A80036" points="229,385.7344,233,395.7344,237,385.7344,233,389.7344" style="stroke: #A80036; stroke-width: 1.0;"/><line style="stroke: #A80036; stroke-width: 1.5;" x1="233" x2="233" y1="443.6719" y2="463.6719"/><polygon fill="#A80036" points="229,453.6719,233,463.6719,237,453.6719,233,457.6719" style="stroke: #A80036; stroke-width: 1.0;"/><!--MD5=[a5a363c7363a8fc3356ca26b4e4ffbed]
@startuml parallel-tool-calls
title Parallel Tool Calls

start

:LLM returns response\nwith tool_calls = [A, B, C];

:Append assistant message\nwith all tool_calls to messages;

fork
  :dispatch(call_A);
  :Append result_A\nto messages;
fork again
  :dispatch(call_B);
  :Append result_B\nto messages;
fork again
  :dispatch(call_C);
  :Append result_C\nto messages;
end fork

note right
  All results appended
  before next LLM call.
  Partial failure still
  appends error result.
end note

:Call LLM with updated messages\n(all results in context);

stop

@enduml

PlantUML version 1.2020.02(Sun Mar 01 10:22:07 UTC 2020)
(GPL source distribution)
Java Runtime: OpenJDK Runtime Environment
JVM: OpenJDK 64-Bit Server VM
Java Version: 17.0.19+10
Operating System: Linux
Default Encoding: UTF-8
Language: en
Country: null
--></g></svg>